<svg width="500" height="614" viewBox="0 0 500 614" fill="none" xmlns="http://www.w3.org/2000/svg">
<g clip-path="url(#clip0_151_494)">
<path d="M417.554 326.172C418.416 419.083 499.06 450.001 499.954 450.394C499.272 452.574 487.068 494.455 457.467 537.714C431.876 575.116 405.319 612.378 363.482 613.15C322.373 613.907 309.155 588.773 262.155 588.773C215.17 588.773 200.484 612.379 161.569 613.908C121.186 615.438 90.4335 573.466 64.6328 536.202C11.91 459.978 -28.3812 320.812 25.7197 226.873C52.5958 180.222 100.626 150.681 152.758 149.924C192.413 149.167 229.842 176.602 254.085 176.602C278.312 176.602 323.796 143.609 371.613 148.455C391.631 149.288 447.823 156.541 483.903 209.354C480.996 211.157 416.856 248.496 417.554 326.172ZM340.294 98.0262C361.734 72.0742 376.164 35.9467 372.227 0C341.323 1.24207 303.954 20.5934 281.787 46.5311C261.922 69.5002 244.524 106.264 249.218 141.499C283.664 144.164 318.853 123.995 340.294 98.0262Z" fill="white"/>
</g>
<defs>
<clipPath id="clip0_151_494">
<rect width="500" height="613.949" fill="white"/>
</clipPath>
</defs>
</svg>
