<svg width="560" height="642" viewBox="0 0 560 642" fill="none" xmlns="http://www.w3.org/2000/svg">
<rect y="0.5" width="327" height="636" rx="24" fill="white"/>
<path d="M555.417 0H519.417C517.817 0 516.084 1.66667 515.417 2.5C351.75 207.667 22.617 620.3 15.4172 629.5C11.8172 633.9 15.9172 636 18.4172 636.5C196.25 638.167 552.517 641.5 554.917 641.5C558.917 640.3 559.25 637.333 558.917 636V5C558.917 1 556.584 0 555.417 0Z" fill="url(#paint0_linear_169_619)"/>
<path d="M521.417 0.5H51.417L286.417 291.5L521.417 0.5Z" fill="url(#paint1_linear_169_619)"/>
<path d="M91.8814 211.471H86.2308C86.0135 210.263 85.609 209.201 85.0174 208.283C84.4258 207.366 83.7014 206.587 82.8441 205.947C81.9869 205.307 81.027 204.824 79.9645 204.498C78.9141 204.172 77.7972 204.009 76.614 204.009C74.4769 204.009 72.5632 204.547 70.8729 205.621C69.1946 206.696 67.8665 208.271 66.8885 210.348C65.9226 212.425 65.4396 214.96 65.4396 217.955C65.4396 220.973 65.9226 223.521 66.8885 225.597C67.8665 227.674 69.2006 229.244 70.891 230.306C72.5813 231.369 74.483 231.9 76.5959 231.9C77.767 231.9 78.8778 231.743 79.9283 231.429C80.9908 231.103 81.9506 230.626 82.8079 229.998C83.6651 229.37 84.3896 228.604 84.9812 227.698C85.5849 226.781 86.0014 225.73 86.2308 224.547L91.8814 224.565C91.5795 226.388 90.994 228.066 90.1246 229.6C89.2674 231.121 88.1626 232.437 86.8104 233.548C85.4702 234.647 83.9368 235.498 82.2102 236.102C80.4837 236.705 78.6001 237.007 76.5597 237.007C73.348 237.007 70.4865 236.246 67.9751 234.725C65.4638 233.192 63.4837 231 62.0348 228.151C60.598 225.301 59.8796 221.903 59.8796 217.955C59.8796 213.994 60.604 210.596 62.0529 207.758C63.5018 204.909 65.4819 202.723 67.9933 201.202C70.5046 199.669 73.3601 198.902 76.5597 198.902C78.5277 198.902 80.3629 199.186 82.0653 199.753C83.7798 200.309 85.3192 201.13 86.6836 202.216C88.0479 203.291 89.1768 204.607 90.0703 206.164C90.9638 207.71 91.5675 209.479 91.8814 211.471ZM109.351 237.061C106.743 237.061 104.467 236.464 102.523 235.268C100.579 234.073 99.07 232.401 97.9954 230.252C96.9208 228.103 96.3836 225.591 96.3836 222.718C96.3836 219.832 96.9208 217.309 97.9954 215.147C99.07 212.986 100.579 211.308 102.523 210.113C104.467 208.917 106.743 208.32 109.351 208.32C111.959 208.32 114.235 208.917 116.179 210.113C118.123 211.308 119.632 212.986 120.706 215.147C121.781 217.309 122.318 219.832 122.318 222.718C122.318 225.591 121.781 228.103 120.706 230.252C119.632 232.401 118.123 234.073 116.179 235.268C114.235 236.464 111.959 237.061 109.351 237.061ZM109.369 232.516C111.059 232.516 112.46 232.069 113.571 231.175C114.681 230.282 115.503 229.093 116.034 227.608C116.577 226.123 116.849 224.487 116.849 222.7C116.849 220.925 116.577 219.295 116.034 217.81C115.503 216.312 114.681 215.111 113.571 214.206C112.46 213.3 111.059 212.847 109.369 212.847C107.667 212.847 106.254 213.3 105.131 214.206C104.02 215.111 103.193 216.312 102.65 217.81C102.119 219.295 101.853 220.925 101.853 222.7C101.853 224.487 102.119 226.123 102.65 227.608C103.193 229.093 104.02 230.282 105.131 231.175C106.254 232.069 107.667 232.516 109.369 232.516ZM133.268 219.983V236.5H127.853V208.682H133.05V213.21H133.395C134.035 211.737 135.037 210.553 136.401 209.66C137.777 208.766 139.51 208.32 141.599 208.32C143.494 208.32 145.155 208.718 146.579 209.515C148.004 210.3 149.109 211.471 149.894 213.028C150.678 214.586 151.071 216.512 151.071 218.806V236.5H145.656V219.458C145.656 217.441 145.13 215.866 144.08 214.731C143.03 213.584 141.587 213.01 139.751 213.01C138.496 213.01 137.379 213.282 136.401 213.825C135.435 214.369 134.668 215.165 134.101 216.216C133.546 217.254 133.268 218.51 133.268 219.983ZM178.669 215.473L173.761 216.343C173.555 215.715 173.229 215.117 172.783 214.55C172.348 213.982 171.756 213.517 171.008 213.155C170.259 212.793 169.324 212.612 168.201 212.612C166.667 212.612 165.387 212.956 164.361 213.644C163.335 214.32 162.822 215.196 162.822 216.27C162.822 217.2 163.166 217.949 163.854 218.516C164.542 219.083 165.653 219.548 167.186 219.911L171.605 220.925C174.165 221.516 176.073 222.428 177.328 223.659C178.584 224.891 179.212 226.491 179.212 228.459C179.212 230.125 178.729 231.61 177.763 232.914C176.809 234.206 175.475 235.22 173.761 235.957C172.058 236.693 170.084 237.061 167.838 237.061C164.723 237.061 162.182 236.397 160.214 235.069C158.246 233.729 157.038 231.827 156.592 229.364L161.826 228.567C162.152 229.932 162.822 230.964 163.836 231.664C164.85 232.353 166.172 232.697 167.802 232.697C169.577 232.697 170.996 232.328 172.058 231.592C173.121 230.843 173.652 229.932 173.652 228.857C173.652 227.988 173.326 227.257 172.674 226.666C172.034 226.074 171.05 225.627 169.722 225.326L165.013 224.293C162.417 223.702 160.498 222.76 159.254 221.468C158.022 220.176 157.407 218.54 157.407 216.56C157.407 214.918 157.865 213.481 158.783 212.25C159.701 211.018 160.968 210.058 162.586 209.37C164.204 208.67 166.058 208.32 168.146 208.32C171.153 208.32 173.519 208.972 175.246 210.276C176.972 211.567 178.113 213.3 178.669 215.473ZM202.278 224.963V208.682H207.711V236.5H202.386V231.683H202.097C201.457 233.168 200.43 234.405 199.018 235.395C197.617 236.373 195.873 236.862 193.784 236.862C191.997 236.862 190.415 236.47 189.039 235.685C187.674 234.888 186.6 233.711 185.815 232.153C185.042 230.596 184.656 228.67 184.656 226.376V208.682H190.071V225.724C190.071 227.62 190.596 229.129 191.647 230.252C192.697 231.375 194.061 231.936 195.74 231.936C196.754 231.936 197.762 231.683 198.764 231.175C199.778 230.668 200.618 229.902 201.282 228.875C201.958 227.849 202.29 226.545 202.278 224.963ZM219.892 199.409V236.5H214.477V199.409H219.892ZM239.653 208.682V213.028H224.458V208.682H239.653ZM228.533 202.017H233.948V228.332C233.948 229.382 234.105 230.173 234.419 230.705C234.733 231.224 235.137 231.58 235.632 231.773C236.139 231.954 236.688 232.045 237.28 232.045C237.715 232.045 238.095 232.015 238.421 231.954C238.747 231.894 239.001 231.846 239.182 231.809L240.16 236.283C239.846 236.403 239.399 236.524 238.82 236.645C238.24 236.778 237.516 236.85 236.646 236.862C235.222 236.886 233.893 236.633 232.662 236.102C231.43 235.57 230.434 234.749 229.674 233.638C228.913 232.528 228.533 231.133 228.533 229.455V202.017ZM253.228 237.116C251.466 237.116 249.872 236.79 248.447 236.138C247.022 235.474 245.893 234.514 245.06 233.258C244.239 232.002 243.829 230.463 243.829 228.64C243.829 227.07 244.131 225.778 244.734 224.764C245.338 223.75 246.153 222.947 247.179 222.355C248.206 221.764 249.353 221.317 250.62 221.015C251.888 220.713 253.18 220.484 254.496 220.327C256.162 220.134 257.515 219.977 258.553 219.856C259.591 219.723 260.346 219.512 260.817 219.222C261.288 218.933 261.523 218.462 261.523 217.81V217.683C261.523 216.101 261.076 214.876 260.183 214.006C259.301 213.137 257.985 212.702 256.235 212.702C254.412 212.702 252.975 213.107 251.924 213.916C250.886 214.713 250.168 215.6 249.769 216.578L244.68 215.419C245.284 213.729 246.165 212.364 247.324 211.326C248.495 210.276 249.842 209.515 251.363 209.044C252.884 208.561 254.484 208.32 256.162 208.32C257.273 208.32 258.45 208.452 259.694 208.718C260.95 208.972 262.121 209.442 263.207 210.131C264.306 210.819 265.206 211.803 265.906 213.083C266.606 214.35 266.956 215.999 266.956 218.027V236.5H261.668V232.697H261.451C261.1 233.397 260.575 234.085 259.875 234.761C259.175 235.437 258.275 235.999 257.176 236.446C256.078 236.892 254.762 237.116 253.228 237.116ZM254.405 232.769C255.903 232.769 257.182 232.473 258.245 231.882C259.32 231.29 260.135 230.517 260.69 229.564C261.257 228.598 261.541 227.565 261.541 226.467V222.881C261.348 223.074 260.974 223.255 260.418 223.424C259.875 223.581 259.253 223.72 258.553 223.841C257.853 223.949 257.17 224.052 256.506 224.148C255.842 224.233 255.287 224.305 254.84 224.366C253.79 224.499 252.83 224.722 251.961 225.036C251.103 225.35 250.415 225.803 249.896 226.394C249.389 226.974 249.135 227.746 249.135 228.712C249.135 230.053 249.63 231.067 250.62 231.755C251.61 232.431 252.872 232.769 254.405 232.769ZM290.069 246.932C289.26 246.932 288.523 246.865 287.859 246.733C287.195 246.612 286.7 246.479 286.374 246.334L287.678 241.897C288.668 242.163 289.55 242.277 290.322 242.241C291.095 242.205 291.777 241.915 292.369 241.372C292.973 240.828 293.504 239.941 293.963 238.71L294.633 236.862L284.455 208.682H290.25L297.295 230.27H297.585L304.63 208.682H310.444L298.979 240.213C298.448 241.662 297.772 242.887 296.951 243.889C296.13 244.903 295.152 245.664 294.017 246.171C292.882 246.678 291.566 246.932 290.069 246.932ZM328.01 246.932V208.682H333.298V213.191H333.751C334.065 212.612 334.518 211.942 335.109 211.181C335.701 210.42 336.522 209.756 337.572 209.189C338.623 208.609 340.011 208.32 341.738 208.32C343.983 208.32 345.988 208.887 347.751 210.022C349.513 211.157 350.896 212.793 351.898 214.93C352.912 217.067 353.419 219.639 353.419 222.645C353.419 225.652 352.918 228.229 351.916 230.379C350.914 232.516 349.537 234.164 347.787 235.323C346.036 236.47 344.038 237.043 341.792 237.043C340.102 237.043 338.719 236.76 337.645 236.192C336.582 235.625 335.749 234.961 335.145 234.2C334.542 233.439 334.077 232.763 333.751 232.172H333.425V246.932H328.01ZM333.316 222.591C333.316 224.547 333.6 226.261 334.167 227.734C334.735 229.207 335.556 230.36 336.631 231.194C337.705 232.015 339.021 232.425 340.579 232.425C342.197 232.425 343.549 231.996 344.635 231.139C345.722 230.27 346.543 229.093 347.099 227.608C347.666 226.123 347.95 224.45 347.95 222.591C347.95 220.756 347.672 219.108 347.117 217.647C346.573 216.186 345.752 215.033 344.654 214.188C343.567 213.342 342.209 212.92 340.579 212.92C339.009 212.92 337.681 213.324 336.594 214.133C335.52 214.942 334.705 216.071 334.149 217.52C333.594 218.969 333.316 220.659 333.316 222.591ZM367.072 237.116C365.309 237.116 363.715 236.79 362.291 236.138C360.866 235.474 359.737 234.514 358.904 233.258C358.083 232.002 357.672 230.463 357.672 228.64C357.672 227.07 357.974 225.778 358.578 224.764C359.182 223.75 359.997 222.947 361.023 222.355C362.049 221.764 363.196 221.317 364.464 221.015C365.732 220.713 367.024 220.484 368.34 220.327C370.006 220.134 371.358 219.977 372.396 219.856C373.435 219.723 374.189 219.512 374.66 219.222C375.131 218.933 375.367 218.462 375.367 217.81V217.683C375.367 216.101 374.92 214.876 374.026 214.006C373.145 213.137 371.829 212.702 370.078 212.702C368.255 212.702 366.818 213.107 365.768 213.916C364.73 214.713 364.011 215.6 363.613 216.578L358.524 215.419C359.127 213.729 360.009 212.364 361.168 211.326C362.339 210.276 363.685 209.515 365.206 209.044C366.728 208.561 368.328 208.32 370.006 208.32C371.117 208.32 372.294 208.452 373.537 208.718C374.793 208.972 375.964 209.442 377.051 210.131C378.15 210.819 379.049 211.803 379.749 213.083C380.45 214.35 380.8 215.999 380.8 218.027V236.5H375.511V232.697H375.294C374.944 233.397 374.419 234.085 373.719 234.761C373.018 235.437 372.119 235.999 371.02 236.446C369.921 236.892 368.605 237.116 367.072 237.116ZM368.249 232.769C369.746 232.769 371.026 232.473 372.089 231.882C373.163 231.29 373.978 230.517 374.534 229.564C375.101 228.598 375.385 227.565 375.385 226.467V222.881C375.192 223.074 374.817 223.255 374.262 223.424C373.719 223.581 373.097 223.72 372.396 223.841C371.696 223.949 371.014 224.052 370.35 224.148C369.686 224.233 369.13 224.305 368.684 224.366C367.633 224.499 366.673 224.722 365.804 225.036C364.947 225.35 364.259 225.803 363.739 226.394C363.232 226.974 362.979 227.746 362.979 228.712C362.979 230.053 363.474 231.067 364.464 231.755C365.454 232.431 366.716 232.769 368.249 232.769ZM399.166 247.511C396.956 247.511 395.055 247.222 393.461 246.642C391.879 246.063 390.587 245.296 389.585 244.342C388.583 243.388 387.834 242.344 387.339 241.209L391.994 239.289C392.32 239.82 392.755 240.382 393.298 240.973C393.853 241.577 394.602 242.09 395.544 242.513C396.497 242.935 397.723 243.147 399.22 243.147C401.273 243.147 402.969 242.646 404.309 241.643C405.649 240.653 406.32 239.072 406.32 236.898V231.429H405.975C405.649 232.021 405.179 232.679 404.563 233.403C403.959 234.127 403.126 234.755 402.064 235.287C401.001 235.818 399.619 236.083 397.916 236.083C395.719 236.083 393.739 235.57 391.976 234.544C390.225 233.506 388.837 231.978 387.81 229.962C386.796 227.934 386.289 225.44 386.289 222.482C386.289 219.524 386.79 216.989 387.792 214.876C388.806 212.763 390.195 211.145 391.958 210.022C393.72 208.887 395.719 208.32 397.952 208.32C399.679 208.32 401.073 208.609 402.136 209.189C403.198 209.756 404.026 210.42 404.617 211.181C405.221 211.942 405.686 212.612 406.012 213.191H406.41V208.682H411.717V237.116C411.717 239.506 411.161 241.468 410.05 243.002C408.94 244.535 407.436 245.67 405.541 246.407C403.657 247.143 401.532 247.511 399.166 247.511ZM399.111 231.592C400.669 231.592 401.985 231.23 403.06 230.505C404.146 229.769 404.967 228.718 405.523 227.354C406.09 225.978 406.374 224.33 406.374 222.41C406.374 220.538 406.096 218.89 405.541 217.466C404.985 216.041 404.17 214.93 403.096 214.133C402.021 213.324 400.693 212.92 399.111 212.92C397.482 212.92 396.123 213.342 395.037 214.188C393.95 215.021 393.129 216.156 392.573 217.592C392.03 219.029 391.758 220.635 391.758 222.41C391.758 224.233 392.036 225.833 392.592 227.209C393.147 228.586 393.968 229.66 395.055 230.433C396.153 231.206 397.506 231.592 399.111 231.592ZM426.565 237.116C424.802 237.116 423.208 236.79 421.783 236.138C420.359 235.474 419.23 234.514 418.397 233.258C417.576 232.002 417.165 230.463 417.165 228.64C417.165 227.07 417.467 225.778 418.071 224.764C418.674 223.75 419.489 222.947 420.516 222.355C421.542 221.764 422.689 221.317 423.957 221.015C425.224 220.713 426.516 220.484 427.832 220.327C429.498 220.134 430.851 219.977 431.889 219.856C432.927 219.723 433.682 219.512 434.153 219.222C434.624 218.933 434.859 218.462 434.859 217.81V217.683C434.859 216.101 434.413 214.876 433.519 214.006C432.638 213.137 431.322 212.702 429.571 212.702C427.748 212.702 426.311 213.107 425.261 213.916C424.222 214.713 423.504 215.6 423.105 216.578L418.016 215.419C418.62 213.729 419.501 212.364 420.66 211.326C421.832 210.276 423.178 209.515 424.699 209.044C426.22 208.561 427.82 208.32 429.498 208.32C430.609 208.32 431.786 208.452 433.03 208.718C434.286 208.972 435.457 209.442 436.544 210.131C437.642 210.819 438.542 211.803 439.242 213.083C439.942 214.35 440.293 215.999 440.293 218.027V236.5H435.004V232.697H434.787C434.437 233.397 433.911 234.085 433.211 234.761C432.511 235.437 431.611 235.999 430.513 236.446C429.414 236.892 428.098 237.116 426.565 237.116ZM427.742 232.769C429.239 232.769 430.519 232.473 431.581 231.882C432.656 231.29 433.471 230.517 434.026 229.564C434.594 228.598 434.877 227.565 434.877 226.467V222.881C434.684 223.074 434.31 223.255 433.755 223.424C433.211 223.581 432.589 223.72 431.889 223.841C431.189 223.949 430.507 224.052 429.843 224.148C429.179 224.233 428.623 224.305 428.176 224.366C427.126 224.499 426.166 224.722 425.297 225.036C424.44 225.35 423.751 225.803 423.232 226.394C422.725 226.974 422.471 227.746 422.471 228.712C422.471 230.053 422.967 231.067 423.957 231.755C424.947 232.431 426.208 232.769 427.742 232.769ZM472.968 208.682V213.028H457.773V208.682H472.968ZM461.848 202.017H467.263V228.332C467.263 229.382 467.42 230.173 467.734 230.705C468.048 231.224 468.452 231.58 468.947 231.773C469.454 231.954 470.004 232.045 470.595 232.045C471.03 232.045 471.41 232.015 471.736 231.954C472.062 231.894 472.316 231.846 472.497 231.809L473.475 236.283C473.161 236.403 472.714 236.524 472.135 236.645C471.555 236.778 470.831 236.85 469.961 236.862C468.537 236.886 467.208 236.633 465.977 236.102C464.745 235.57 463.749 234.749 462.989 233.638C462.228 232.528 461.848 231.133 461.848 229.455V202.017ZM496.07 224.963V208.682H501.503V236.5H496.178V231.683H495.888C495.249 233.168 494.222 234.405 492.81 235.395C491.409 236.373 489.664 236.862 487.576 236.862C485.789 236.862 484.207 236.47 482.831 235.685C481.466 234.888 480.392 233.711 479.607 232.153C478.834 230.596 478.448 228.67 478.448 226.376V208.682H483.863V225.724C483.863 227.62 484.388 229.129 485.439 230.252C486.489 231.375 487.853 231.936 489.532 231.936C490.546 231.936 491.554 231.683 492.556 231.175C493.57 230.668 494.409 229.902 495.074 228.875C495.75 227.849 496.082 226.545 496.07 224.963ZM81.4858 277.473L76.5778 278.343C76.3725 277.715 76.0465 277.117 75.5998 276.55C75.1651 275.982 74.5735 275.517 73.8249 275.155C73.0764 274.793 72.1406 274.612 71.0178 274.612C69.4844 274.612 68.2045 274.956 67.1783 275.644C66.152 276.32 65.6388 277.196 65.6388 278.27C65.6388 279.2 65.983 279.949 66.6712 280.516C67.3594 281.083 68.4702 281.548 70.0036 281.911L74.4226 282.925C76.9822 283.516 78.8899 284.428 80.1456 285.659C81.4013 286.891 82.0291 288.491 82.0291 290.459C82.0291 292.125 81.5462 293.61 80.5803 294.914C79.6264 296.206 78.2923 297.22 76.5778 297.957C74.8754 298.693 72.9013 299.061 70.6555 299.061C67.5405 299.061 64.9989 298.397 63.0309 297.069C61.0629 295.729 59.8555 293.827 59.4087 291.364L64.6428 290.567C64.9688 291.932 65.6388 292.964 66.6531 293.664C67.6673 294.353 68.9893 294.697 70.6193 294.697C72.3942 294.697 73.8129 294.328 74.8754 293.592C75.9379 292.843 76.4691 291.932 76.4691 290.857C76.4691 289.988 76.1431 289.257 75.4911 288.666C74.8512 288.074 73.8672 287.627 72.5391 287.326L67.8303 286.293C65.2344 285.702 63.3146 284.76 62.071 283.468C60.8395 282.176 60.2237 280.54 60.2237 278.56C60.2237 276.918 60.6825 275.481 61.6001 274.25C62.5178 273.018 63.7855 272.058 65.4034 271.37C67.0213 270.67 68.8746 270.32 70.9634 270.32C73.9698 270.32 76.3363 270.972 78.0629 272.276C79.7894 273.567 80.9304 275.3 81.4858 277.473ZM95.5686 299.116C93.8058 299.116 92.212 298.79 90.7873 298.138C89.3626 297.474 88.2337 296.514 87.4006 295.258C86.5796 294.002 86.1691 292.463 86.1691 290.64C86.1691 289.07 86.4709 287.778 87.0746 286.764C87.6783 285.75 88.4933 284.947 89.5196 284.355C90.5458 283.764 91.6929 283.317 92.9606 283.015C94.2284 282.713 95.5203 282.484 96.8363 282.327C98.5025 282.134 99.8548 281.977 100.893 281.856C101.931 281.723 102.686 281.512 103.157 281.222C103.628 280.933 103.863 280.462 103.863 279.81V279.683C103.863 278.101 103.417 276.876 102.523 276.006C101.642 275.137 100.326 274.702 98.575 274.702C96.7518 274.702 95.315 275.107 94.2646 275.916C93.2262 276.713 92.5078 277.6 92.1094 278.578L87.0203 277.419C87.624 275.729 88.5054 274.364 89.6644 273.326C90.8356 272.276 92.1819 271.515 93.7032 271.044C95.2245 270.561 96.8243 270.32 98.5025 270.32C99.6133 270.32 100.791 270.452 102.034 270.718C103.29 270.972 104.461 271.442 105.548 272.131C106.646 272.819 107.546 273.803 108.246 275.083C108.946 276.35 109.297 277.999 109.297 280.027V298.5H104.008V294.697H103.791C103.441 295.397 102.916 296.085 102.215 296.761C101.515 297.437 100.615 297.999 99.5167 298.446C98.418 298.892 97.1019 299.116 95.5686 299.116ZM96.7458 294.769C98.2429 294.769 99.5228 294.473 100.585 293.882C101.66 293.29 102.475 292.517 103.03 291.564C103.598 290.598 103.881 289.565 103.881 288.467V284.881C103.688 285.074 103.314 285.255 102.759 285.424C102.215 285.581 101.593 285.72 100.893 285.841C100.193 285.949 99.5107 286.052 98.8466 286.148C98.1826 286.233 97.6272 286.305 97.1804 286.366C96.13 286.499 95.1701 286.722 94.3008 287.036C93.4436 287.35 92.7554 287.803 92.2362 288.394C91.7291 288.974 91.4755 289.746 91.4755 290.712C91.4755 292.053 91.9706 293.067 92.9606 293.755C93.9507 294.431 95.2124 294.769 96.7458 294.769ZM121.414 261.409V298.5H115.999V261.409H121.414ZM138.603 299.043C136.357 299.043 134.353 298.47 132.59 297.323C130.84 296.164 129.463 294.516 128.461 292.379C127.471 290.229 126.976 287.652 126.976 284.645C126.976 281.639 127.477 279.067 128.479 276.93C129.493 274.793 130.882 273.157 132.645 272.022C134.407 270.887 136.406 270.32 138.639 270.32C140.366 270.32 141.754 270.609 142.805 271.189C143.867 271.756 144.688 272.42 145.268 273.181C145.859 273.942 146.318 274.612 146.644 275.191H146.97V261.409H152.385V298.5H147.097V294.172H146.644C146.318 294.763 145.847 295.439 145.232 296.2C144.628 296.961 143.795 297.625 142.732 298.192C141.67 298.76 140.293 299.043 138.603 299.043ZM139.798 294.425C141.356 294.425 142.672 294.015 143.747 293.194C144.833 292.36 145.654 291.207 146.21 289.734C146.777 288.261 147.061 286.547 147.061 284.591C147.061 282.659 146.783 280.969 146.228 279.52C145.672 278.071 144.857 276.942 143.783 276.133C142.708 275.324 141.38 274.92 139.798 274.92C138.168 274.92 136.81 275.342 135.723 276.188C134.637 277.033 133.816 278.186 133.26 279.647C132.717 281.108 132.445 282.756 132.445 284.591C132.445 286.45 132.723 288.123 133.279 289.608C133.834 291.093 134.655 292.27 135.742 293.139C136.84 293.996 138.193 294.425 139.798 294.425ZM171.322 299.061C168.714 299.061 166.438 298.464 164.494 297.268C162.55 296.073 161.041 294.401 159.966 292.252C158.892 290.103 158.355 287.591 158.355 284.718C158.355 281.832 158.892 279.309 159.966 277.147C161.041 274.986 162.55 273.308 164.494 272.113C166.438 270.917 168.714 270.32 171.322 270.32C173.93 270.32 176.206 270.917 178.15 272.113C180.094 273.308 181.603 274.986 182.677 277.147C183.752 279.309 184.289 281.832 184.289 284.718C184.289 287.591 183.752 290.103 182.677 292.252C181.603 294.401 180.094 296.073 178.15 297.268C176.206 298.464 173.93 299.061 171.322 299.061ZM171.34 294.516C173.03 294.516 174.431 294.069 175.542 293.175C176.652 292.282 177.473 291.093 178.005 289.608C178.548 288.123 178.82 286.487 178.82 284.7C178.82 282.925 178.548 281.295 178.005 279.81C177.473 278.312 176.652 277.111 175.542 276.206C174.431 275.3 173.03 274.847 171.34 274.847C169.638 274.847 168.225 275.3 167.102 276.206C165.991 277.111 165.164 278.312 164.621 279.81C164.09 281.295 163.824 282.925 163.824 284.7C163.824 286.487 164.09 288.123 164.621 289.608C165.164 291.093 165.991 292.282 167.102 293.175C168.225 294.069 169.638 294.516 171.34 294.516ZM193.391 298.844C192.401 298.844 191.55 298.494 190.838 297.794C190.126 297.081 189.769 296.224 189.769 295.222C189.769 294.232 190.126 293.387 190.838 292.686C191.55 291.974 192.401 291.618 193.391 291.618C194.382 291.618 195.233 291.974 195.945 292.686C196.657 293.387 197.014 294.232 197.014 295.222C197.014 295.886 196.845 296.496 196.507 297.051C196.181 297.594 195.746 298.029 195.203 298.355C194.659 298.681 194.056 298.844 193.391 298.844Z" fill="#3B4559"/>
<path d="M64.9975 368.5V350.318H71.4783C72.887 350.318 74.0559 350.561 74.9851 351.046C75.9202 351.531 76.6186 352.203 77.0803 353.061C77.5419 353.914 77.7727 354.899 77.7727 356.018C77.7727 357.13 77.5389 358.11 77.0714 358.956C76.6097 359.797 75.9113 360.451 74.9762 360.918C74.047 361.386 72.8781 361.62 71.4695 361.62H66.56V359.258H71.2209C72.1087 359.258 72.8307 359.131 73.3871 358.876C73.9493 358.622 74.3607 358.252 74.6211 357.767C74.8815 357.281 75.0117 356.698 75.0117 356.018C75.0117 355.331 74.8786 354.736 74.6122 354.233C74.3518 353.73 73.9405 353.346 73.3782 353.079C72.8219 352.807 72.0909 352.671 71.1854 352.671H67.7408V368.5H64.9975ZM73.973 360.297L78.4652 368.5H75.3402L70.9368 360.297H73.973ZM86.354 368.775C85.0104 368.775 83.8534 368.488 82.8827 367.914C81.918 367.334 81.1723 366.52 80.6455 365.473C80.1247 364.419 79.8643 363.185 79.8643 361.771C79.8643 360.374 80.1247 359.143 80.6455 358.077C81.1723 357.012 81.9062 356.181 82.8472 355.583C83.7942 354.985 84.901 354.686 86.1675 354.686C86.9369 354.686 87.6827 354.813 88.4047 355.068C89.1268 355.322 89.7749 355.722 90.349 356.266C90.9231 356.811 91.3759 357.518 91.7073 358.388C92.0387 359.252 92.2045 360.303 92.2045 361.54V362.481H81.3646V360.492H89.6032C89.6032 359.794 89.4612 359.175 89.1771 358.637C88.893 358.092 88.4935 357.663 87.9786 357.349C87.4696 357.036 86.8718 356.879 86.1853 356.879C85.4395 356.879 84.7885 357.062 84.2322 357.429C83.6817 357.79 83.2556 358.264 82.9537 358.85C82.6578 359.43 82.5099 360.06 82.5099 360.741V362.294C82.5099 363.206 82.6697 363.981 82.9893 364.62C83.3148 365.26 83.7675 365.748 84.3476 366.085C84.9276 366.417 85.6053 366.582 86.3806 366.582C86.8837 366.582 87.3424 366.511 87.7567 366.369C88.171 366.221 88.529 366.002 88.8309 365.712C89.1327 365.422 89.3635 365.064 89.5233 364.638L92.0358 365.091C91.8345 365.831 91.4735 366.479 90.9527 367.035C90.4378 367.586 89.7897 368.015 89.0084 368.322C88.2331 368.624 87.3483 368.775 86.354 368.775ZM106.175 354.864L101.23 368.5H98.3887L93.4348 354.864H96.2846L99.7381 365.357H99.8801L103.325 354.864H106.175ZM108.419 368.5V354.864H111.074V368.5H108.419ZM109.76 352.76C109.298 352.76 108.902 352.606 108.57 352.298C108.245 351.984 108.082 351.611 108.082 351.179C108.082 350.741 108.245 350.368 108.57 350.061C108.902 349.747 109.298 349.59 109.76 349.59C110.221 349.59 110.615 349.747 110.941 350.061C111.272 350.368 111.438 350.741 111.438 351.179C111.438 351.611 111.272 351.984 110.941 352.298C110.615 352.606 110.221 352.76 109.76 352.76ZM124.613 358.193L122.207 358.619C122.107 358.311 121.947 358.018 121.728 357.74C121.515 357.462 121.225 357.234 120.858 357.056C120.491 356.879 120.032 356.79 119.482 356.79C118.73 356.79 118.103 356.959 117.6 357.296C117.097 357.628 116.845 358.057 116.845 358.583C116.845 359.039 117.014 359.406 117.351 359.684C117.688 359.962 118.233 360.19 118.985 360.368L121.151 360.865C122.406 361.155 123.341 361.602 123.956 362.206C124.572 362.809 124.88 363.594 124.88 364.558C124.88 365.375 124.643 366.103 124.169 366.742C123.702 367.375 123.048 367.873 122.207 368.234C121.373 368.595 120.405 368.775 119.304 368.775C117.777 368.775 116.531 368.45 115.567 367.799C114.602 367.142 114.01 366.21 113.791 365.002L116.357 364.612C116.517 365.28 116.845 365.786 117.342 366.13C117.839 366.467 118.487 366.636 119.286 366.636C120.157 366.636 120.852 366.455 121.373 366.094C121.894 365.727 122.154 365.28 122.154 364.754C122.154 364.327 121.994 363.969 121.675 363.679C121.361 363.389 120.879 363.17 120.228 363.022L117.919 362.516C116.647 362.226 115.706 361.765 115.096 361.131C114.492 360.498 114.191 359.696 114.191 358.725C114.191 357.921 114.416 357.216 114.865 356.613C115.315 356.009 115.937 355.538 116.73 355.201C117.523 354.858 118.431 354.686 119.455 354.686C120.929 354.686 122.089 355.006 122.935 355.645C123.782 356.278 124.341 357.127 124.613 358.193ZM131.517 368.802C130.652 368.802 129.871 368.642 129.173 368.322C128.474 367.997 127.921 367.526 127.513 366.911C127.11 366.295 126.909 365.541 126.909 364.647C126.909 363.878 127.057 363.244 127.353 362.747C127.649 362.25 128.048 361.856 128.551 361.566C129.054 361.276 129.617 361.057 130.238 360.909C130.86 360.761 131.493 360.649 132.138 360.572C132.955 360.477 133.618 360.4 134.127 360.341C134.636 360.276 135.006 360.173 135.236 360.031C135.467 359.888 135.583 359.658 135.583 359.338V359.276C135.583 358.501 135.364 357.9 134.926 357.474C134.494 357.048 133.848 356.835 132.99 356.835C132.097 356.835 131.392 357.033 130.877 357.429C130.368 357.82 130.016 358.255 129.821 358.734L127.326 358.166C127.622 357.338 128.054 356.669 128.622 356.16C129.196 355.645 129.856 355.272 130.602 355.041C131.348 354.804 132.132 354.686 132.955 354.686C133.499 354.686 134.076 354.751 134.686 354.881C135.301 355.006 135.876 355.237 136.408 355.574C136.947 355.911 137.388 356.394 137.731 357.021C138.074 357.642 138.246 358.45 138.246 359.445V368.5H135.654V366.636H135.547C135.375 366.979 135.118 367.316 134.775 367.648C134.431 367.979 133.99 368.254 133.452 368.473C132.913 368.692 132.268 368.802 131.517 368.802ZM132.094 366.671C132.827 366.671 133.455 366.526 133.976 366.236C134.502 365.946 134.902 365.567 135.174 365.1C135.452 364.626 135.591 364.12 135.591 363.582V361.824C135.497 361.919 135.313 362.007 135.041 362.09C134.775 362.167 134.47 362.235 134.127 362.294C133.783 362.348 133.449 362.398 133.123 362.445C132.798 362.487 132.526 362.522 132.307 362.552C131.792 362.617 131.321 362.726 130.895 362.88C130.475 363.034 130.137 363.256 129.883 363.546C129.634 363.83 129.51 364.209 129.51 364.683C129.51 365.339 129.753 365.837 130.238 366.174C130.723 366.505 131.342 366.671 132.094 366.671ZM153.775 368.775C152.431 368.775 151.274 368.488 150.304 367.914C149.339 367.334 148.593 366.52 148.066 365.473C147.546 364.419 147.285 363.185 147.285 361.771C147.285 360.374 147.546 359.143 148.066 358.077C148.593 357.012 149.327 356.181 150.268 355.583C151.215 354.985 152.322 354.686 153.588 354.686C154.358 354.686 155.104 354.813 155.826 355.068C156.548 355.322 157.196 355.722 157.77 356.266C158.344 356.811 158.797 357.518 159.128 358.388C159.46 359.252 159.625 360.303 159.625 361.54V362.481H148.786V360.492H157.024C157.024 359.794 156.882 359.175 156.598 358.637C156.314 358.092 155.914 357.663 155.4 357.349C154.891 357.036 154.293 356.879 153.606 356.879C152.86 356.879 152.209 357.062 151.653 357.429C151.103 357.79 150.676 358.264 150.375 358.85C150.079 359.43 149.931 360.06 149.931 360.741V362.294C149.931 363.206 150.091 363.981 150.41 364.62C150.736 365.26 151.188 365.748 151.768 366.085C152.348 366.417 153.026 366.582 153.801 366.582C154.305 366.582 154.763 366.511 155.178 366.369C155.592 366.221 155.95 366.002 156.252 365.712C156.554 365.422 156.784 365.064 156.944 364.638L159.457 365.091C159.255 365.831 158.894 366.479 158.374 367.035C157.859 367.586 157.211 368.015 156.429 368.322C155.654 368.624 154.769 368.775 153.775 368.775ZM164.975 350.318V368.5H162.321V350.318H164.975ZM179.767 368.766C178.666 368.766 177.684 368.485 176.82 367.923C175.961 367.355 175.287 366.547 174.796 365.499C174.31 364.446 174.068 363.182 174.068 361.708C174.068 360.235 174.313 358.974 174.804 357.926C175.302 356.879 175.982 356.077 176.846 355.521C177.71 354.964 178.69 354.686 179.785 354.686C180.631 354.686 181.312 354.828 181.827 355.112C182.348 355.39 182.75 355.716 183.034 356.089C183.324 356.462 183.549 356.79 183.709 357.074H183.869V350.318H186.523V368.5H183.931V366.378H183.709C183.549 366.668 183.318 367 183.016 367.373C182.72 367.745 182.312 368.071 181.791 368.349C181.27 368.627 180.596 368.766 179.767 368.766ZM180.353 366.502C181.117 366.502 181.762 366.301 182.288 365.899C182.821 365.49 183.224 364.925 183.496 364.203C183.774 363.481 183.913 362.641 183.913 361.682C183.913 360.735 183.777 359.906 183.505 359.196C183.232 358.486 182.833 357.932 182.306 357.536C181.779 357.139 181.128 356.941 180.353 356.941C179.554 356.941 178.888 357.148 178.356 357.562C177.823 357.977 177.42 358.542 177.148 359.258C176.882 359.974 176.749 360.782 176.749 361.682C176.749 362.593 176.885 363.413 177.157 364.141C177.429 364.869 177.832 365.446 178.364 365.872C178.903 366.292 179.566 366.502 180.353 366.502ZM195.939 368.775C194.595 368.775 193.438 368.488 192.468 367.914C191.503 367.334 190.757 366.52 190.23 365.473C189.71 364.419 189.449 363.185 189.449 361.771C189.449 360.374 189.71 359.143 190.23 358.077C190.757 357.012 191.491 356.181 192.432 355.583C193.379 354.985 194.486 354.686 195.752 354.686C196.522 354.686 197.268 354.813 197.99 355.068C198.712 355.322 199.36 355.722 199.934 356.266C200.508 356.811 200.961 357.518 201.292 358.388C201.624 359.252 201.789 360.303 201.789 361.54V362.481H190.95V360.492H199.188C199.188 359.794 199.046 359.175 198.762 358.637C198.478 358.092 198.078 357.663 197.564 357.349C197.055 357.036 196.457 356.879 195.77 356.879C195.025 356.879 194.373 357.062 193.817 357.429C193.267 357.79 192.841 358.264 192.539 358.85C192.243 359.43 192.095 360.06 192.095 360.741V362.294C192.095 363.206 192.255 363.981 192.574 364.62C192.9 365.26 193.353 365.748 193.933 366.085C194.513 366.417 195.19 366.582 195.966 366.582C196.469 366.582 196.927 366.511 197.342 366.369C197.756 366.221 198.114 366.002 198.416 365.712C198.718 365.422 198.949 365.064 199.108 364.638L201.621 365.091C201.42 365.831 201.058 366.479 200.538 367.035C200.023 367.586 199.375 368.015 198.593 368.322C197.818 368.624 196.933 368.775 195.939 368.775ZM210.85 354.864V356.994H203.402V354.864H210.85ZM205.399 351.597H208.054V364.496C208.054 365.011 208.13 365.399 208.284 365.659C208.438 365.914 208.637 366.088 208.879 366.183C209.128 366.272 209.397 366.316 209.687 366.316C209.9 366.316 210.087 366.301 210.246 366.272C210.406 366.242 210.53 366.218 210.619 366.201L211.099 368.393C210.945 368.453 210.726 368.512 210.442 368.571C210.158 368.636 209.802 368.672 209.376 368.678C208.678 368.689 208.027 368.565 207.423 368.305C206.82 368.044 206.331 367.642 205.958 367.097C205.585 366.553 205.399 365.869 205.399 365.047V351.597ZM217.505 368.802C216.641 368.802 215.859 368.642 215.161 368.322C214.463 367.997 213.909 367.526 213.501 366.911C213.098 366.295 212.897 365.541 212.897 364.647C212.897 363.878 213.045 363.244 213.341 362.747C213.637 362.25 214.037 361.856 214.54 361.566C215.043 361.276 215.605 361.057 216.226 360.909C216.848 360.761 217.481 360.649 218.126 360.572C218.943 360.477 219.606 360.4 220.115 360.341C220.624 360.276 220.994 360.173 221.225 360.031C221.455 359.888 221.571 359.658 221.571 359.338V359.276C221.571 358.501 221.352 357.9 220.914 357.474C220.482 357.048 219.837 356.835 218.979 356.835C218.085 356.835 217.381 357.033 216.866 357.429C216.357 357.82 216.004 358.255 215.809 358.734L213.314 358.166C213.61 357.338 214.042 356.669 214.611 356.16C215.185 355.645 215.845 355.272 216.59 355.041C217.336 354.804 218.12 354.686 218.943 354.686C219.488 354.686 220.065 354.751 220.674 354.881C221.29 355.006 221.864 355.237 222.396 355.574C222.935 355.911 223.376 356.394 223.719 357.021C224.063 357.642 224.234 358.45 224.234 359.445V368.5H221.642V366.636H221.535C221.364 366.979 221.106 367.316 220.763 367.648C220.42 367.979 219.979 368.254 219.44 368.473C218.902 368.692 218.256 368.802 217.505 368.802ZM218.082 366.671C218.816 366.671 219.443 366.526 219.964 366.236C220.491 365.946 220.89 365.567 221.162 365.1C221.441 364.626 221.58 364.12 221.58 363.582V361.824C221.485 361.919 221.302 362.007 221.029 362.09C220.763 362.167 220.458 362.235 220.115 362.294C219.772 362.348 219.437 362.398 219.112 362.445C218.786 362.487 218.514 362.522 218.295 362.552C217.78 362.617 217.309 362.726 216.883 362.88C216.463 363.034 216.126 363.256 215.871 363.546C215.623 363.83 215.498 364.209 215.498 364.683C215.498 365.339 215.741 365.837 216.226 366.174C216.712 366.505 217.33 366.671 218.082 366.671ZM230.174 350.318V368.5H227.52V350.318H230.174ZM236.15 350.318V368.5H233.495V350.318H236.15ZM245.348 368.775C244.005 368.775 242.848 368.488 241.877 367.914C240.912 367.334 240.166 366.52 239.64 365.473C239.119 364.419 238.858 363.185 238.858 361.771C238.858 360.374 239.119 359.143 239.64 358.077C240.166 357.012 240.9 356.181 241.841 355.583C242.788 354.985 243.895 354.686 245.162 354.686C245.931 354.686 246.677 354.813 247.399 355.068C248.121 355.322 248.769 355.722 249.343 356.266C249.917 356.811 250.37 357.518 250.701 358.388C251.033 359.252 251.199 360.303 251.199 361.54V362.481H240.359V360.492H248.597C248.597 359.794 248.455 359.175 248.171 358.637C247.887 358.092 247.488 357.663 246.973 357.349C246.464 357.036 245.866 356.879 245.179 356.879C244.434 356.879 243.783 357.062 243.226 357.429C242.676 357.79 242.25 358.264 241.948 358.85C241.652 359.43 241.504 360.06 241.504 360.741V362.294C241.504 363.206 241.664 363.981 241.983 364.62C242.309 365.26 242.762 365.748 243.342 366.085C243.922 366.417 244.599 366.582 245.375 366.582C245.878 366.582 246.337 366.511 246.751 366.369C247.165 366.221 247.523 366.002 247.825 365.712C248.127 365.422 248.358 365.064 248.517 364.638L251.03 365.091C250.829 365.831 250.468 366.479 249.947 367.035C249.432 367.586 248.784 368.015 248.003 368.322C247.227 368.624 246.342 368.775 245.348 368.775ZM265.365 368.766C264.264 368.766 263.281 368.485 262.417 367.923C261.559 367.355 260.884 366.547 260.393 365.499C259.908 364.446 259.665 363.182 259.665 361.708C259.665 360.235 259.911 358.974 260.402 357.926C260.899 356.879 261.58 356.077 262.444 355.521C263.308 354.964 264.288 354.686 265.383 354.686C266.229 354.686 266.91 354.828 267.424 355.112C267.945 355.39 268.348 355.716 268.632 356.089C268.922 356.462 269.147 356.79 269.307 357.074H269.466V350.318H272.121V368.5H269.528V366.378H269.307C269.147 366.668 268.916 367 268.614 367.373C268.318 367.745 267.91 368.071 267.389 368.349C266.868 368.627 266.193 368.766 265.365 368.766ZM265.951 366.502C266.714 366.502 267.359 366.301 267.886 365.899C268.419 365.49 268.821 364.925 269.093 364.203C269.372 363.481 269.511 362.641 269.511 361.682C269.511 360.735 269.375 359.906 269.102 359.196C268.83 358.486 268.431 357.932 267.904 357.536C267.377 357.139 266.726 356.941 265.951 356.941C265.152 356.941 264.486 357.148 263.953 357.562C263.421 357.977 263.018 358.542 262.746 359.258C262.479 359.974 262.346 360.782 262.346 361.682C262.346 362.593 262.482 363.413 262.755 364.141C263.027 364.869 263.429 365.446 263.962 365.872C264.501 366.292 265.164 366.502 265.951 366.502ZM281.537 368.775C280.193 368.775 279.036 368.488 278.065 367.914C277.101 367.334 276.355 366.52 275.828 365.473C275.307 364.419 275.047 363.185 275.047 361.771C275.047 360.374 275.307 359.143 275.828 358.077C276.355 357.012 277.089 356.181 278.03 355.583C278.977 354.985 280.084 354.686 281.35 354.686C282.12 354.686 282.865 354.813 283.587 355.068C284.309 355.322 284.958 355.722 285.532 356.266C286.106 356.811 286.558 357.518 286.89 358.388C287.221 359.252 287.387 360.303 287.387 361.54V362.481H276.547V360.492H284.786C284.786 359.794 284.644 359.175 284.36 358.637C284.076 358.092 283.676 357.663 283.161 357.349C282.652 357.036 282.054 356.879 281.368 356.879C280.622 356.879 279.971 357.062 279.415 357.429C278.864 357.79 278.438 358.264 278.136 358.85C277.84 359.43 277.692 360.06 277.692 360.741V362.294C277.692 363.206 277.852 363.981 278.172 364.62C278.497 365.26 278.95 365.748 279.53 366.085C280.11 366.417 280.788 366.582 281.563 366.582C282.066 366.582 282.525 366.511 282.939 366.369C283.354 366.221 283.712 366.002 284.013 365.712C284.315 365.422 284.546 365.064 284.706 364.638L287.218 365.091C287.017 365.831 286.656 366.479 286.135 367.035C285.62 367.586 284.972 368.015 284.191 368.322C283.416 368.624 282.531 368.775 281.537 368.775ZM302.814 354.864V356.994H295.365V354.864H302.814ZM297.363 351.597H300.017V364.496C300.017 365.011 300.094 365.399 300.248 365.659C300.402 365.914 300.6 366.088 300.843 366.183C301.092 366.272 301.361 366.316 301.651 366.316C301.864 366.316 302.05 366.301 302.21 366.272C302.37 366.242 302.494 366.218 302.583 366.201L303.062 368.393C302.909 368.453 302.69 368.512 302.406 368.571C302.121 368.636 301.766 368.672 301.34 368.678C300.642 368.689 299.991 368.565 299.387 368.305C298.783 368.044 298.295 367.642 297.922 367.097C297.549 366.553 297.363 365.869 297.363 365.047V351.597ZM314.138 362.845V354.864H316.802V368.5H314.192V366.138H314.05C313.736 366.866 313.233 367.473 312.54 367.958C311.854 368.438 310.999 368.678 309.975 368.678C309.099 368.678 308.323 368.485 307.649 368.1C306.98 367.71 306.453 367.133 306.068 366.369C305.69 365.606 305.5 364.662 305.5 363.537V354.864H308.155V363.218C308.155 364.147 308.412 364.887 308.927 365.437C309.442 365.988 310.111 366.263 310.934 366.263C311.431 366.263 311.925 366.138 312.416 365.89C312.913 365.641 313.325 365.266 313.65 364.762C313.982 364.259 314.144 363.62 314.138 362.845ZM332.362 368.775C331.018 368.775 329.861 368.488 328.891 367.914C327.926 367.334 327.18 366.52 326.653 365.473C326.132 364.419 325.872 363.185 325.872 361.771C325.872 360.374 326.132 359.143 326.653 358.077C327.18 357.012 327.914 356.181 328.855 355.583C329.802 354.985 330.909 354.686 332.175 354.686C332.945 354.686 333.69 354.813 334.413 355.068C335.135 355.322 335.783 355.722 336.357 356.266C336.931 356.811 337.384 357.518 337.715 358.388C338.047 359.252 338.212 360.303 338.212 361.54V362.481H327.372V360.492H335.611C335.611 359.794 335.469 359.175 335.185 358.637C334.901 358.092 334.501 357.663 333.986 357.349C333.477 357.036 332.88 356.879 332.193 356.879C331.447 356.879 330.796 357.062 330.24 357.429C329.69 357.79 329.263 358.264 328.962 358.85C328.666 359.43 328.518 360.06 328.518 360.741V362.294C328.518 363.206 328.677 363.981 328.997 364.62C329.323 365.26 329.775 365.748 330.355 366.085C330.935 366.417 331.613 366.582 332.388 366.582C332.891 366.582 333.35 366.511 333.764 366.369C334.179 366.221 334.537 366.002 334.839 365.712C335.141 365.422 335.371 365.064 335.531 364.638L338.044 365.091C337.842 365.831 337.481 366.479 336.96 367.035C336.446 367.586 335.797 368.015 335.016 368.322C334.241 368.624 333.356 368.775 332.362 368.775ZM351.126 358.193L348.72 358.619C348.619 358.311 348.46 358.018 348.241 357.74C348.028 357.462 347.738 357.234 347.371 357.056C347.004 356.879 346.545 356.79 345.994 356.79C345.243 356.79 344.615 356.959 344.112 357.296C343.609 357.628 343.358 358.057 343.358 358.583C343.358 359.039 343.526 359.406 343.864 359.684C344.201 359.962 344.746 360.19 345.497 360.368L347.664 360.865C348.918 361.155 349.853 361.602 350.469 362.206C351.084 362.809 351.392 363.594 351.392 364.558C351.392 365.375 351.155 366.103 350.682 366.742C350.214 367.375 349.56 367.873 348.72 368.234C347.885 368.595 346.918 368.775 345.817 368.775C344.29 368.775 343.044 368.45 342.079 367.799C341.115 367.142 340.523 366.21 340.304 365.002L342.869 364.612C343.029 365.28 343.358 365.786 343.855 366.13C344.352 366.467 345 366.636 345.799 366.636C346.669 366.636 347.365 366.455 347.885 366.094C348.406 365.727 348.667 365.28 348.667 364.754C348.667 364.327 348.507 363.969 348.187 363.679C347.874 363.389 347.391 363.17 346.74 363.022L344.432 362.516C343.16 362.226 342.218 361.765 341.609 361.131C341.005 360.498 340.703 359.696 340.703 358.725C340.703 357.921 340.928 357.216 341.378 356.613C341.828 356.009 342.449 355.538 343.242 355.201C344.035 354.858 344.944 354.686 345.968 354.686C347.442 354.686 348.602 355.006 349.448 355.645C350.294 356.278 350.854 357.127 351.126 358.193ZM360.426 354.864V356.994H352.978V354.864H360.426ZM354.975 351.597H357.63V364.496C357.63 365.011 357.707 365.399 357.861 365.659C358.014 365.914 358.213 366.088 358.455 366.183C358.704 366.272 358.973 366.316 359.263 366.316C359.476 366.316 359.663 366.301 359.823 366.272C359.982 366.242 360.107 366.218 360.195 366.201L360.675 368.393C360.521 368.453 360.302 368.512 360.018 368.571C359.734 368.636 359.379 368.672 358.953 368.678C358.254 368.689 357.603 368.565 356.999 368.305C356.396 368.044 355.907 367.642 355.535 367.097C355.162 366.553 354.975 365.869 354.975 365.047V351.597ZM367.081 368.802C366.217 368.802 365.436 368.642 364.737 368.322C364.039 367.997 363.485 367.526 363.077 366.911C362.675 366.295 362.473 365.541 362.473 364.647C362.473 363.878 362.621 363.244 362.917 362.747C363.213 362.25 363.613 361.856 364.116 361.566C364.619 361.276 365.181 361.057 365.803 360.909C366.424 360.761 367.057 360.649 367.702 360.572C368.519 360.477 369.182 360.4 369.691 360.341C370.2 360.276 370.57 360.173 370.801 360.031C371.032 359.888 371.147 359.658 371.147 359.338V359.276C371.147 358.501 370.928 357.9 370.49 357.474C370.058 357.048 369.413 356.835 368.555 356.835C367.661 356.835 366.957 357.033 366.442 357.429C365.933 357.82 365.581 358.255 365.385 358.734L362.891 358.166C363.187 357.338 363.619 356.669 364.187 356.16C364.761 355.645 365.421 355.272 366.167 355.041C366.912 354.804 367.696 354.686 368.519 354.686C369.064 354.686 369.641 354.751 370.25 354.881C370.866 355.006 371.44 355.237 371.973 355.574C372.511 355.911 372.952 356.394 373.295 357.021C373.639 357.642 373.81 358.45 373.81 359.445V368.5H371.218V366.636H371.112C370.94 366.979 370.682 367.316 370.339 367.648C369.996 367.979 369.555 368.254 369.016 368.473C368.478 368.692 367.833 368.802 367.081 368.802ZM367.658 366.671C368.392 366.671 369.019 366.526 369.54 366.236C370.067 365.946 370.466 365.567 370.739 365.1C371.017 364.626 371.156 364.12 371.156 363.582V361.824C371.061 361.919 370.878 362.007 370.605 362.09C370.339 362.167 370.034 362.235 369.691 362.294C369.348 362.348 369.013 362.398 368.688 362.445C368.362 362.487 368.09 362.522 367.871 362.552C367.356 362.617 366.886 362.726 366.46 362.88C366.039 363.034 365.702 363.256 365.447 363.546C365.199 363.83 365.075 364.209 365.075 364.683C365.075 365.339 365.317 365.837 365.803 366.174C366.288 366.505 366.906 366.671 367.658 366.671ZM382.201 368.766C381.1 368.766 380.117 368.485 379.253 367.923C378.395 367.355 377.72 366.547 377.229 365.499C376.744 364.446 376.501 363.182 376.501 361.708C376.501 360.235 376.747 358.974 377.238 357.926C377.735 356.879 378.416 356.077 379.28 355.521C380.144 354.964 381.124 354.686 382.218 354.686C383.065 354.686 383.745 354.828 384.26 355.112C384.781 355.39 385.184 355.716 385.468 356.089C385.758 356.462 385.983 356.79 386.142 357.074H386.302V350.318H388.957V368.5H386.364V366.378H386.142C385.983 366.668 385.752 367 385.45 367.373C385.154 367.745 384.746 368.071 384.225 368.349C383.704 368.627 383.029 368.766 382.201 368.766ZM382.787 366.502C383.55 366.502 384.195 366.301 384.722 365.899C385.255 365.49 385.657 364.925 385.929 364.203C386.208 363.481 386.347 362.641 386.347 361.682C386.347 360.735 386.211 359.906 385.938 359.196C385.666 358.486 385.267 357.932 384.74 357.536C384.213 357.139 383.562 356.941 382.787 356.941C381.988 356.941 381.322 357.148 380.789 357.562C380.256 357.977 379.854 358.542 379.582 359.258C379.315 359.974 379.182 360.782 379.182 361.682C379.182 362.593 379.318 363.413 379.591 364.141C379.863 364.869 380.265 365.446 380.798 365.872C381.337 366.292 381.999 366.502 382.787 366.502ZM398.239 368.775C396.961 368.775 395.845 368.482 394.892 367.896C393.94 367.31 393.2 366.491 392.673 365.437C392.146 364.384 391.883 363.153 391.883 361.744C391.883 360.329 392.146 359.092 392.673 358.033C393.2 356.974 393.94 356.151 394.892 355.565C395.845 354.979 396.961 354.686 398.239 354.686C399.518 354.686 400.633 354.979 401.586 355.565C402.539 356.151 403.279 356.974 403.806 358.033C404.333 359.092 404.596 360.329 404.596 361.744C404.596 363.153 404.333 364.384 403.806 365.437C403.279 366.491 402.539 367.31 401.586 367.896C400.633 368.482 399.518 368.775 398.239 368.775ZM398.248 366.547C399.077 366.547 399.763 366.328 400.308 365.89C400.852 365.452 401.255 364.869 401.515 364.141C401.782 363.413 401.915 362.611 401.915 361.735C401.915 360.865 401.782 360.066 401.515 359.338C401.255 358.604 400.852 358.015 400.308 357.571C399.763 357.127 399.077 356.906 398.248 356.906C397.414 356.906 396.721 357.127 396.171 357.571C395.626 358.015 395.221 358.604 394.955 359.338C394.694 360.066 394.564 360.865 394.564 361.735C394.564 362.611 394.694 363.413 394.955 364.141C395.221 364.869 395.626 365.452 396.171 365.89C396.721 366.328 397.414 366.547 398.248 366.547ZM418.78 368.766C417.679 368.766 416.696 368.485 415.832 367.923C414.974 367.355 414.299 366.547 413.808 365.499C413.323 364.446 413.08 363.182 413.08 361.708C413.08 360.235 413.326 358.974 413.817 357.926C414.314 356.879 414.995 356.077 415.859 355.521C416.723 354.964 417.703 354.686 418.798 354.686C419.644 354.686 420.325 354.828 420.839 355.112C421.36 355.39 421.763 355.716 422.047 356.089C422.337 356.462 422.562 356.79 422.722 357.074H422.881V350.318H425.536V368.5H422.944V366.378H422.722C422.562 366.668 422.331 367 422.029 367.373C421.733 367.745 421.325 368.071 420.804 368.349C420.283 368.627 419.608 368.766 418.78 368.766ZM419.366 366.502C420.129 366.502 420.774 366.301 421.301 365.899C421.834 365.49 422.236 364.925 422.509 364.203C422.787 363.481 422.926 362.641 422.926 361.682C422.926 360.735 422.79 359.906 422.517 359.196C422.245 358.486 421.846 357.932 421.319 357.536C420.792 357.139 420.141 356.941 419.366 356.941C418.567 356.941 417.901 357.148 417.368 357.562C416.836 357.977 416.433 358.542 416.161 359.258C415.895 359.974 415.761 360.782 415.761 361.682C415.761 362.593 415.897 363.413 416.17 364.141C416.442 364.869 416.844 365.446 417.377 365.872C417.916 366.292 418.579 366.502 419.366 366.502ZM434.952 368.775C433.608 368.775 432.451 368.488 431.48 367.914C430.516 367.334 429.77 366.52 429.243 365.473C428.722 364.419 428.462 363.185 428.462 361.771C428.462 360.374 428.722 359.143 429.243 358.077C429.77 357.012 430.504 356.181 431.445 355.583C432.392 354.985 433.499 354.686 434.765 354.686C435.535 354.686 436.28 354.813 437.002 355.068C437.724 355.322 438.373 355.722 438.947 356.266C439.521 356.811 439.974 357.518 440.305 358.388C440.636 359.252 440.802 360.303 440.802 361.54V362.481H429.962V360.492H438.201C438.201 359.794 438.059 359.175 437.775 358.637C437.491 358.092 437.091 357.663 436.576 357.349C436.067 357.036 435.469 356.879 434.783 356.879C434.037 356.879 433.386 357.062 432.83 357.429C432.279 357.79 431.853 358.264 431.551 358.85C431.255 359.43 431.108 360.06 431.108 360.741V362.294C431.108 363.206 431.267 363.981 431.587 364.62C431.912 365.26 432.365 365.748 432.945 366.085C433.525 366.417 434.203 366.582 434.978 366.582C435.481 366.582 435.94 366.511 436.354 366.369C436.769 366.221 437.127 366.002 437.429 365.712C437.73 365.422 437.961 365.064 438.121 364.638L440.633 365.091C440.432 365.831 440.071 366.479 439.55 367.035C439.035 367.586 438.387 368.015 437.606 368.322C436.831 368.624 435.946 368.775 434.952 368.775ZM70.5284 398.775C69.2086 398.775 68.0722 398.476 67.1193 397.879C66.1723 397.275 65.4444 396.443 64.9354 395.384C64.4264 394.324 64.1719 393.111 64.1719 391.744C64.1719 390.359 64.4323 389.137 64.9531 388.077C65.474 387.012 66.2079 386.181 67.1548 385.583C68.1018 384.985 69.2174 384.686 70.5018 384.686C71.5375 384.686 72.4608 384.878 73.2717 385.263C74.0825 385.642 74.7365 386.175 75.2337 386.861C75.7367 387.548 76.0356 388.35 76.1303 389.267H73.5469C73.4048 388.628 73.0793 388.077 72.5703 387.616C72.0672 387.154 71.3925 386.923 70.5462 386.923C69.8063 386.923 69.1583 387.119 68.6019 387.509C68.0515 387.894 67.6224 388.444 67.3146 389.161C67.0069 389.871 66.853 390.711 66.853 391.682C66.853 392.676 67.0039 393.534 67.3058 394.256C67.6076 394.978 68.0337 395.538 68.5842 395.934C69.1405 396.331 69.7945 396.529 70.5462 396.529C71.0492 396.529 71.505 396.437 71.9134 396.254C72.3277 396.065 72.6739 395.795 72.9521 395.446C73.2362 395.097 73.4344 394.677 73.5469 394.185H76.1303C76.0356 395.067 75.7486 395.854 75.2692 396.547C74.7898 397.239 74.1476 397.784 73.3427 398.18C72.5437 398.577 71.6056 398.775 70.5284 398.775ZM87.3572 392.845V384.864H90.0205V398.5H87.4104V396.138H87.2684C86.9547 396.866 86.4516 397.473 85.7591 397.958C85.0726 398.438 84.2174 398.678 83.1934 398.678C82.3175 398.678 81.5422 398.485 80.8675 398.1C80.1987 397.71 79.6719 397.133 79.2872 396.369C78.9084 395.606 78.719 394.662 78.719 393.537V384.864H81.3735V393.218C81.3735 394.147 81.6309 394.887 82.1459 395.437C82.6608 395.988 83.3296 396.263 84.1523 396.263C84.6494 396.263 85.1436 396.138 85.6349 395.89C86.132 395.641 86.5434 395.266 86.8689 394.762C87.2003 394.259 87.3631 393.62 87.3572 392.845ZM99.2143 398.775C97.8708 398.775 96.7137 398.488 95.7431 397.914C94.7783 397.334 94.0326 396.52 93.5059 395.473C92.985 394.419 92.7246 393.185 92.7246 391.771C92.7246 390.374 92.985 389.143 93.5059 388.077C94.0326 387.012 94.7665 386.181 95.7076 385.583C96.6545 384.985 97.7613 384.686 99.0279 384.686C99.7973 384.686 100.543 384.813 101.265 385.068C101.987 385.322 102.635 385.722 103.209 386.266C103.783 386.811 104.236 387.518 104.568 388.388C104.899 389.252 105.065 390.303 105.065 391.54V392.481H94.225V390.492H102.464C102.464 389.794 102.322 389.175 102.037 388.637C101.753 388.092 101.354 387.663 100.839 387.349C100.33 387.036 99.7322 386.879 99.0456 386.879C98.2999 386.879 97.6489 387.062 97.0925 387.429C96.5421 387.79 96.1159 388.264 95.8141 388.85C95.5182 389.43 95.3702 390.06 95.3702 390.741V392.294C95.3702 393.206 95.53 393.981 95.8496 394.62C96.1751 395.26 96.6279 395.748 97.2079 396.085C97.7879 396.417 98.4656 396.582 99.2409 396.582C99.744 396.582 100.203 396.511 100.617 396.369C101.031 396.221 101.389 396.002 101.691 395.712C101.993 395.422 102.224 395.064 102.384 394.638L104.896 395.091C104.695 395.831 104.334 396.479 103.813 397.035C103.298 397.586 102.65 398.015 101.869 398.322C101.093 398.624 100.209 398.775 99.2143 398.775ZM110.415 390.403V398.5H107.76V384.864H110.308V387.083H110.477C110.79 386.361 111.282 385.781 111.95 385.343C112.625 384.905 113.474 384.686 114.498 384.686C115.428 384.686 116.241 384.881 116.94 385.272C117.638 385.657 118.18 386.231 118.564 386.994C118.949 387.758 119.141 388.702 119.141 389.826V398.5H116.487V390.146C116.487 389.158 116.229 388.385 115.715 387.829C115.2 387.267 114.492 386.985 113.593 386.985C112.977 386.985 112.43 387.119 111.95 387.385C111.477 387.651 111.101 388.042 110.823 388.557C110.551 389.066 110.415 389.681 110.415 390.403ZM128.817 384.864V386.994H121.368V384.864H128.817ZM123.366 381.597H126.02V394.496C126.02 395.011 126.097 395.399 126.251 395.659C126.405 395.914 126.603 396.088 126.846 396.183C127.095 396.272 127.364 396.316 127.654 396.316C127.867 396.316 128.053 396.301 128.213 396.272C128.373 396.242 128.497 396.218 128.586 396.201L129.065 398.393C128.912 398.453 128.693 398.512 128.408 398.571C128.124 398.636 127.769 398.672 127.343 398.678C126.645 398.689 125.994 398.565 125.39 398.305C124.786 398.044 124.298 397.642 123.925 397.097C123.552 396.553 123.366 395.869 123.366 395.047V381.597ZM135.472 398.802C134.607 398.802 133.826 398.642 133.128 398.322C132.429 397.997 131.876 397.526 131.468 396.911C131.065 396.295 130.864 395.541 130.864 394.647C130.864 393.878 131.012 393.244 131.308 392.747C131.604 392.25 132.003 391.856 132.506 391.566C133.009 391.276 133.572 391.057 134.193 390.909C134.815 390.761 135.448 390.649 136.093 390.572C136.91 390.477 137.573 390.4 138.082 390.341C138.591 390.276 138.961 390.173 139.191 390.031C139.422 389.888 139.538 389.658 139.538 389.338V389.276C139.538 388.501 139.319 387.9 138.881 387.474C138.449 387.048 137.804 386.835 136.945 386.835C136.052 386.835 135.347 387.033 134.832 387.429C134.323 387.82 133.971 388.255 133.776 388.734L131.281 388.166C131.577 387.338 132.009 386.669 132.577 386.16C133.152 385.645 133.811 385.272 134.557 385.041C135.303 384.804 136.087 384.686 136.91 384.686C137.454 384.686 138.031 384.751 138.641 384.881C139.257 385.006 139.831 385.237 140.363 385.574C140.902 385.911 141.343 386.394 141.686 387.021C142.029 387.642 142.201 388.45 142.201 389.445V398.5H139.609V396.636H139.502C139.33 396.979 139.073 397.316 138.73 397.648C138.386 397.979 137.946 398.254 137.407 398.473C136.868 398.692 136.223 398.802 135.472 398.802ZM136.049 396.671C136.783 396.671 137.41 396.526 137.931 396.236C138.458 395.946 138.857 395.567 139.129 395.1C139.407 394.626 139.547 394.12 139.547 393.582V391.824C139.452 391.919 139.268 392.007 138.996 392.09C138.73 392.167 138.425 392.235 138.082 392.294C137.738 392.348 137.404 392.398 137.078 392.445C136.753 392.487 136.481 392.522 136.262 392.552C135.747 392.617 135.276 392.726 134.85 392.88C134.43 393.034 134.093 393.256 133.838 393.546C133.589 393.83 133.465 394.209 133.465 394.683C133.465 395.339 133.708 395.837 134.193 396.174C134.679 396.505 135.297 396.671 136.049 396.671ZM148.94 396.014L148.807 396.982C148.718 397.692 148.567 398.432 148.354 399.201C148.147 399.977 147.931 400.696 147.706 401.359C147.487 402.022 147.307 402.548 147.165 402.939H145.282C145.359 402.572 145.466 402.075 145.602 401.447C145.738 400.826 145.871 400.131 146.002 399.361C146.132 398.592 146.229 397.808 146.294 397.009L146.383 396.014H148.94ZM158.512 403.614V384.864H161.104V387.074H161.326C161.48 386.79 161.702 386.462 161.992 386.089C162.282 385.716 162.685 385.39 163.199 385.112C163.714 384.828 164.395 384.686 165.241 384.686C166.342 384.686 167.325 384.964 168.189 385.521C169.053 386.077 169.731 386.879 170.222 387.926C170.719 388.974 170.968 390.235 170.968 391.708C170.968 393.182 170.722 394.446 170.231 395.499C169.739 396.547 169.065 397.355 168.207 397.923C167.348 398.485 166.369 398.766 165.268 398.766C164.439 398.766 163.762 398.627 163.235 398.349C162.714 398.071 162.306 397.745 162.01 397.373C161.714 397 161.486 396.668 161.326 396.378H161.166V403.614H158.512ZM161.113 391.682C161.113 392.641 161.252 393.481 161.53 394.203C161.809 394.925 162.211 395.49 162.738 395.899C163.265 396.301 163.91 396.502 164.673 396.502C165.466 396.502 166.129 396.292 166.662 395.872C167.195 395.446 167.597 394.869 167.869 394.141C168.147 393.413 168.286 392.593 168.286 391.682C168.286 390.782 168.15 389.974 167.878 389.258C167.612 388.542 167.209 387.977 166.671 387.562C166.138 387.148 165.472 386.941 164.673 386.941C163.904 386.941 163.253 387.139 162.72 387.536C162.193 387.932 161.794 388.486 161.522 389.196C161.249 389.906 161.113 390.735 161.113 391.682ZM177.66 398.802C176.796 398.802 176.015 398.642 175.316 398.322C174.618 397.997 174.065 397.526 173.656 396.911C173.254 396.295 173.052 395.541 173.052 394.647C173.052 393.878 173.2 393.244 173.496 392.747C173.792 392.25 174.192 391.856 174.695 391.566C175.198 391.276 175.76 391.057 176.382 390.909C177.003 390.761 177.636 390.649 178.282 390.572C179.098 390.477 179.761 390.4 180.27 390.341C180.779 390.276 181.149 390.173 181.38 390.031C181.611 389.888 181.726 389.658 181.726 389.338V389.276C181.726 388.501 181.507 387.9 181.069 387.474C180.637 387.048 179.992 386.835 179.134 386.835C178.24 386.835 177.536 387.033 177.021 387.429C176.512 387.82 176.16 388.255 175.964 388.734L173.47 388.166C173.766 387.338 174.198 386.669 174.766 386.16C175.34 385.645 176 385.272 176.746 385.041C177.491 384.804 178.276 384.686 179.098 384.686C179.643 384.686 180.22 384.751 180.829 384.881C181.445 385.006 182.019 385.237 182.552 385.574C183.09 385.911 183.531 386.394 183.875 387.021C184.218 387.642 184.389 388.45 184.389 389.445V398.5H181.797V396.636H181.691C181.519 396.979 181.262 397.316 180.918 397.648C180.575 397.979 180.134 398.254 179.595 398.473C179.057 398.692 178.412 398.802 177.66 398.802ZM178.237 396.671C178.971 396.671 179.598 396.526 180.119 396.236C180.646 395.946 181.045 395.567 181.318 395.1C181.596 394.626 181.735 394.12 181.735 393.582V391.824C181.64 391.919 181.457 392.007 181.185 392.09C180.918 392.167 180.613 392.235 180.27 392.294C179.927 392.348 179.592 392.398 179.267 392.445C178.941 392.487 178.669 392.522 178.45 392.552C177.935 392.617 177.465 392.726 177.039 392.88C176.618 393.034 176.281 393.256 176.027 393.546C175.778 393.83 175.654 394.209 175.654 394.683C175.654 395.339 175.896 395.837 176.382 396.174C176.867 396.505 177.485 396.671 178.237 396.671ZM193.392 403.898C192.309 403.898 191.377 403.756 190.596 403.472C189.821 403.188 189.187 402.812 188.696 402.344C188.205 401.877 187.838 401.365 187.595 400.808L189.877 399.867C190.037 400.128 190.25 400.403 190.516 400.693C190.788 400.989 191.155 401.24 191.617 401.447C192.084 401.655 192.685 401.758 193.419 401.758C194.425 401.758 195.257 401.513 195.914 401.021C196.571 400.536 196.899 399.761 196.899 398.695V396.014H196.73C196.571 396.304 196.34 396.627 196.038 396.982C195.742 397.337 195.334 397.645 194.813 397.905C194.292 398.166 193.614 398.296 192.78 398.296C191.703 398.296 190.732 398.044 189.868 397.541C189.01 397.032 188.329 396.283 187.826 395.295C187.329 394.301 187.08 393.079 187.08 391.629C187.08 390.179 187.326 388.936 187.817 387.9C188.314 386.864 188.995 386.071 189.859 385.521C190.723 384.964 191.703 384.686 192.798 384.686C193.644 384.686 194.328 384.828 194.848 385.112C195.369 385.39 195.775 385.716 196.065 386.089C196.361 386.462 196.588 386.79 196.748 387.074H196.944V384.864H199.545V398.802C199.545 399.974 199.272 400.935 198.728 401.687C198.183 402.439 197.447 402.995 196.517 403.356C195.594 403.717 194.552 403.898 193.392 403.898ZM193.366 396.094C194.129 396.094 194.774 395.917 195.301 395.561C195.834 395.2 196.236 394.685 196.509 394.017C196.787 393.342 196.926 392.534 196.926 391.593C196.926 390.676 196.79 389.868 196.517 389.169C196.245 388.471 195.846 387.926 195.319 387.536C194.792 387.139 194.141 386.941 193.366 386.941C192.567 386.941 191.901 387.148 191.368 387.562C190.836 387.971 190.433 388.527 190.161 389.232C189.895 389.936 189.761 390.723 189.761 391.593C189.761 392.487 189.897 393.271 190.17 393.946C190.442 394.62 190.844 395.147 191.377 395.526C191.916 395.905 192.579 396.094 193.366 396.094ZM206.823 398.802C205.959 398.802 205.178 398.642 204.479 398.322C203.781 397.997 203.228 397.526 202.819 396.911C202.417 396.295 202.216 395.541 202.216 394.647C202.216 393.878 202.364 393.244 202.659 392.747C202.955 392.25 203.355 391.856 203.858 391.566C204.361 391.276 204.923 391.057 205.545 390.909C206.166 390.761 206.799 390.649 207.445 390.572C208.261 390.477 208.924 390.4 209.433 390.341C209.942 390.276 210.312 390.173 210.543 390.031C210.774 389.888 210.889 389.658 210.889 389.338V389.276C210.889 388.501 210.67 387.9 210.232 387.474C209.8 387.048 209.155 386.835 208.297 386.835C207.403 386.835 206.699 387.033 206.184 387.429C205.675 387.82 205.323 388.255 205.127 388.734L202.633 388.166C202.929 387.338 203.361 386.669 203.929 386.16C204.503 385.645 205.163 385.272 205.909 385.041C206.654 384.804 207.439 384.686 208.261 384.686C208.806 384.686 209.383 384.751 209.993 384.881C210.608 385.006 211.182 385.237 211.715 385.574C212.253 385.911 212.694 386.394 213.038 387.021C213.381 387.642 213.553 388.45 213.553 389.445V398.5H210.96V396.636H210.854C210.682 396.979 210.425 397.316 210.081 397.648C209.738 397.979 209.297 398.254 208.759 398.473C208.22 398.692 207.575 398.802 206.823 398.802ZM207.4 396.671C208.134 396.671 208.761 396.526 209.282 396.236C209.809 395.946 210.209 395.567 210.481 395.1C210.759 394.626 210.898 394.12 210.898 393.582V391.824C210.803 391.919 210.62 392.007 210.348 392.09C210.081 392.167 209.777 392.235 209.433 392.294C209.09 392.348 208.756 392.398 208.43 392.445C208.105 392.487 207.832 392.522 207.613 392.552C207.098 392.617 206.628 392.726 206.202 392.88C205.781 393.034 205.444 393.256 205.19 393.546C204.941 393.83 204.817 394.209 204.817 394.683C204.817 395.339 205.059 395.837 205.545 396.174C206.03 396.505 206.649 396.671 207.4 396.671ZM227.173 398.802C226.309 398.802 225.527 398.642 224.829 398.322C224.131 397.997 223.577 397.526 223.169 396.911C222.766 396.295 222.565 395.541 222.565 394.647C222.565 393.878 222.713 393.244 223.009 392.747C223.305 392.25 223.704 391.856 224.208 391.566C224.711 391.276 225.273 391.057 225.894 390.909C226.516 390.761 227.149 390.649 227.794 390.572C228.611 390.477 229.274 390.4 229.783 390.341C230.292 390.276 230.662 390.173 230.893 390.031C231.123 389.888 231.239 389.658 231.239 389.338V389.276C231.239 388.501 231.02 387.9 230.582 387.474C230.15 387.048 229.505 386.835 228.646 386.835C227.753 386.835 227.048 387.033 226.534 387.429C226.025 387.82 225.672 388.255 225.477 388.734L222.982 388.166C223.278 387.338 223.71 386.669 224.279 386.16C224.853 385.645 225.513 385.272 226.258 385.041C227.004 384.804 227.788 384.686 228.611 384.686C229.155 384.686 229.733 384.751 230.342 384.881C230.958 385.006 231.532 385.237 232.064 385.574C232.603 385.911 233.044 386.394 233.387 387.021C233.731 387.642 233.902 388.45 233.902 389.445V398.5H231.31V396.636H231.203C231.032 396.979 230.774 397.316 230.431 397.648C230.088 397.979 229.647 398.254 229.108 398.473C228.57 398.692 227.924 398.802 227.173 398.802ZM227.75 396.671C228.484 396.671 229.111 396.526 229.632 396.236C230.159 395.946 230.558 395.567 230.83 395.1C231.109 394.626 231.248 394.12 231.248 393.582V391.824C231.153 391.919 230.97 392.007 230.697 392.09C230.431 392.167 230.126 392.235 229.783 392.294C229.44 392.348 229.105 392.398 228.78 392.445C228.454 392.487 228.182 392.522 227.963 392.552C227.448 392.617 226.977 392.726 226.551 392.88C226.131 393.034 225.794 393.256 225.539 393.546C225.291 393.83 225.166 394.209 225.166 394.683C225.166 395.339 225.409 395.837 225.894 396.174C226.38 396.505 226.998 396.671 227.75 396.671ZM249.919 384.864V386.994H242.471V384.864H249.919ZM244.468 381.597H247.123V394.496C247.123 395.011 247.2 395.399 247.354 395.659C247.508 395.914 247.706 396.088 247.949 396.183C248.197 396.272 248.466 396.316 248.756 396.316C248.969 396.316 249.156 396.301 249.316 396.272C249.475 396.242 249.6 396.218 249.689 396.201L250.168 398.393C250.014 398.453 249.795 398.512 249.511 398.571C249.227 398.636 248.872 398.672 248.446 398.678C247.747 398.689 247.096 398.565 246.493 398.305C245.889 398.044 245.401 397.642 245.028 397.097C244.655 396.553 244.468 395.869 244.468 395.047V381.597ZM252.606 398.5V384.864H255.26V398.5H252.606ZM253.946 382.76C253.485 382.76 253.088 382.606 252.757 382.298C252.431 381.984 252.268 381.611 252.268 381.179C252.268 380.741 252.431 380.368 252.757 380.061C253.088 379.747 253.485 379.59 253.946 379.59C254.408 379.59 254.802 379.747 255.127 380.061C255.458 380.368 255.624 380.741 255.624 381.179C255.624 381.611 255.458 381.984 255.127 382.298C254.802 382.606 254.408 382.76 253.946 382.76ZM264.458 398.775C263.115 398.775 261.958 398.488 260.987 397.914C260.022 397.334 259.277 396.52 258.75 395.473C258.229 394.419 257.969 393.185 257.969 391.771C257.969 390.374 258.229 389.143 258.75 388.077C259.277 387.012 260.011 386.181 260.952 385.583C261.899 384.985 263.005 384.686 264.272 384.686C265.041 384.686 265.787 384.813 266.509 385.068C267.231 385.322 267.879 385.722 268.453 386.266C269.028 386.811 269.48 387.518 269.812 388.388C270.143 389.252 270.309 390.303 270.309 391.54V392.481H259.469V390.492H267.708C267.708 389.794 267.566 389.175 267.282 388.637C266.998 388.092 266.598 387.663 266.083 387.349C265.574 387.036 264.976 386.879 264.29 386.879C263.544 386.879 262.893 387.062 262.337 387.429C261.786 387.79 261.36 388.264 261.058 388.85C260.762 389.43 260.614 390.06 260.614 390.741V392.294C260.614 393.206 260.774 393.981 261.094 394.62C261.419 395.26 261.872 395.748 262.452 396.085C263.032 396.417 263.71 396.582 264.485 396.582C264.988 396.582 265.447 396.511 265.861 396.369C266.275 396.221 266.634 396.002 266.935 395.712C267.237 395.422 267.468 395.064 267.628 394.638L270.14 395.091C269.939 395.831 269.578 396.479 269.057 397.035C268.542 397.586 267.894 398.015 267.113 398.322C266.338 398.624 265.453 398.775 264.458 398.775ZM273.004 398.5V384.864H275.552V387.083H275.721C276.005 386.331 276.469 385.746 277.115 385.325C277.76 384.899 278.532 384.686 279.432 384.686C280.343 384.686 281.107 384.899 281.722 385.325C282.344 385.751 282.802 386.337 283.098 387.083H283.24C283.566 386.355 284.084 385.775 284.794 385.343C285.504 384.905 286.351 384.686 287.333 384.686C288.57 384.686 289.579 385.074 290.36 385.849C291.148 386.624 291.541 387.793 291.541 389.356V398.5H288.887V389.604C288.887 388.681 288.635 388.012 288.132 387.598C287.629 387.184 287.028 386.977 286.33 386.977C285.466 386.977 284.794 387.243 284.315 387.776C283.835 388.302 283.595 388.98 283.595 389.809V398.5H280.95V389.436C280.95 388.696 280.719 388.101 280.257 387.651C279.796 387.201 279.195 386.977 278.455 386.977C277.952 386.977 277.487 387.11 277.061 387.376C276.641 387.636 276.301 388 276.04 388.468C275.786 388.936 275.659 389.477 275.659 390.093V398.5H273.004ZM294.849 403.614V384.864H297.441V387.074H297.663C297.817 386.79 298.039 386.462 298.329 386.089C298.619 385.716 299.021 385.39 299.536 385.112C300.051 384.828 300.732 384.686 301.578 384.686C302.679 384.686 303.662 384.964 304.526 385.521C305.39 386.077 306.068 386.879 306.559 387.926C307.056 388.974 307.305 390.235 307.305 391.708C307.305 393.182 307.059 394.446 306.568 395.499C306.076 396.547 305.402 397.355 304.544 397.923C303.685 398.485 302.706 398.766 301.605 398.766C300.776 398.766 300.099 398.627 299.572 398.349C299.051 398.071 298.643 397.745 298.347 397.373C298.051 397 297.823 396.668 297.663 396.378H297.503V403.614H294.849ZM297.45 391.682C297.45 392.641 297.589 393.481 297.867 394.203C298.146 394.925 298.548 395.49 299.075 395.899C299.602 396.301 300.247 396.502 301.01 396.502C301.803 396.502 302.466 396.292 302.999 395.872C303.531 395.446 303.934 394.869 304.206 394.141C304.484 393.413 304.623 392.593 304.623 391.682C304.623 390.782 304.487 389.974 304.215 389.258C303.949 388.542 303.546 387.977 303.008 387.562C302.475 387.148 301.809 386.941 301.01 386.941C300.241 386.941 299.59 387.139 299.057 387.536C298.53 387.932 298.131 388.486 297.858 389.196C297.586 389.906 297.45 390.735 297.45 391.682ZM315.773 398.775C314.494 398.775 313.378 398.482 312.426 397.896C311.473 397.31 310.733 396.491 310.206 395.437C309.679 394.384 309.416 393.153 309.416 391.744C309.416 390.329 309.679 389.092 310.206 388.033C310.733 386.974 311.473 386.151 312.426 385.565C313.378 384.979 314.494 384.686 315.773 384.686C317.051 384.686 318.167 384.979 319.119 385.565C320.072 386.151 320.812 386.974 321.339 388.033C321.866 389.092 322.129 390.329 322.129 391.744C322.129 393.153 321.866 394.384 321.339 395.437C320.812 396.491 320.072 397.31 319.119 397.896C318.167 398.482 317.051 398.775 315.773 398.775ZM315.781 396.547C316.61 396.547 317.297 396.328 317.841 395.89C318.386 395.452 318.788 394.869 319.048 394.141C319.315 393.413 319.448 392.611 319.448 391.735C319.448 390.865 319.315 390.066 319.048 389.338C318.788 388.604 318.386 388.015 317.841 387.571C317.297 387.127 316.61 386.906 315.781 386.906C314.947 386.906 314.254 387.127 313.704 387.571C313.16 388.015 312.754 388.604 312.488 389.338C312.227 390.066 312.097 390.865 312.097 391.735C312.097 392.611 312.227 393.413 312.488 394.141C312.754 394.869 313.16 395.452 313.704 395.89C314.254 396.328 314.947 396.547 315.781 396.547ZM337.574 384.864V386.994H330.125V384.864H337.574ZM332.123 381.597H334.777V394.496C334.777 395.011 334.854 395.399 335.008 395.659C335.162 395.914 335.36 396.088 335.603 396.183C335.851 396.272 336.121 396.316 336.411 396.316C336.624 396.316 336.81 396.301 336.97 396.272C337.13 396.242 337.254 396.218 337.343 396.201L337.822 398.393C337.668 398.453 337.449 398.512 337.165 398.571C336.881 398.636 336.526 398.672 336.1 398.678C335.402 398.689 334.751 398.565 334.147 398.305C333.543 398.044 333.055 397.642 332.682 397.097C332.309 396.553 332.123 395.869 332.123 395.047V381.597ZM348.898 392.845V384.864H351.562V398.5H348.951V396.138H348.809C348.496 396.866 347.993 397.473 347.3 397.958C346.614 398.438 345.758 398.678 344.734 398.678C343.859 398.678 343.083 398.485 342.408 398.1C341.74 397.71 341.213 397.133 340.828 396.369C340.449 395.606 340.26 394.662 340.26 393.537V384.864H342.915V393.218C342.915 394.147 343.172 394.887 343.687 395.437C344.202 395.988 344.871 396.263 345.693 396.263C346.19 396.263 346.685 396.138 347.176 395.89C347.673 395.641 348.084 395.266 348.41 394.762C348.741 394.259 348.904 393.62 348.898 392.845ZM371.463 388.193L369.057 388.619C368.956 388.311 368.796 388.018 368.578 387.74C368.364 387.462 368.074 387.234 367.707 387.056C367.341 386.879 366.882 386.79 366.331 386.79C365.58 386.79 364.952 386.959 364.449 387.296C363.946 387.628 363.695 388.057 363.695 388.583C363.695 389.039 363.863 389.406 364.201 389.684C364.538 389.962 365.083 390.19 365.834 390.368L368 390.865C369.255 391.155 370.19 391.602 370.806 392.206C371.421 392.809 371.729 393.594 371.729 394.558C371.729 395.375 371.492 396.103 371.019 396.742C370.551 397.375 369.897 397.873 369.057 398.234C368.222 398.595 367.255 398.775 366.154 398.775C364.627 398.775 363.381 398.45 362.416 397.799C361.452 397.142 360.86 396.21 360.641 395.002L363.206 394.612C363.366 395.28 363.695 395.786 364.192 396.13C364.689 396.467 365.337 396.636 366.136 396.636C367.006 396.636 367.702 396.455 368.222 396.094C368.743 395.727 369.004 395.28 369.004 394.754C369.004 394.327 368.844 393.969 368.524 393.679C368.211 393.389 367.728 393.17 367.077 393.022L364.769 392.516C363.496 392.226 362.555 391.765 361.946 391.131C361.342 390.498 361.04 389.696 361.04 388.725C361.04 387.921 361.265 387.216 361.715 386.613C362.165 386.009 362.786 385.538 363.579 385.201C364.372 384.858 365.281 384.686 366.305 384.686C367.778 384.686 368.939 385.006 369.785 385.645C370.631 386.278 371.191 387.127 371.463 388.193ZM378.366 398.802C377.502 398.802 376.721 398.642 376.022 398.322C375.324 397.997 374.771 397.526 374.362 396.911C373.96 396.295 373.759 395.541 373.759 394.647C373.759 393.878 373.906 393.244 374.202 392.747C374.498 392.25 374.898 391.856 375.401 391.566C375.904 391.276 376.466 391.057 377.088 390.909C377.709 390.761 378.342 390.649 378.988 390.572C379.804 390.477 380.467 390.4 380.976 390.341C381.485 390.276 381.855 390.173 382.086 390.031C382.317 389.888 382.432 389.658 382.432 389.338V389.276C382.432 388.501 382.213 387.9 381.775 387.474C381.343 387.048 380.698 386.835 379.84 386.835C378.946 386.835 378.242 387.033 377.727 387.429C377.218 387.82 376.866 388.255 376.67 388.734L374.176 388.166C374.472 387.338 374.904 386.669 375.472 386.16C376.046 385.645 376.706 385.272 377.452 385.041C378.197 384.804 378.982 384.686 379.804 384.686C380.349 384.686 380.926 384.751 381.536 384.881C382.151 385.006 382.725 385.237 383.258 385.574C383.796 385.911 384.237 386.394 384.581 387.021C384.924 387.642 385.096 388.45 385.096 389.445V398.5H382.503V396.636H382.397C382.225 396.979 381.968 397.316 381.624 397.648C381.281 397.979 380.84 398.254 380.301 398.473C379.763 398.692 379.118 398.802 378.366 398.802ZM378.943 396.671C379.677 396.671 380.304 396.526 380.825 396.236C381.352 395.946 381.752 395.567 382.024 395.1C382.302 394.626 382.441 394.12 382.441 393.582V391.824C382.346 391.919 382.163 392.007 381.891 392.09C381.624 392.167 381.319 392.235 380.976 392.294C380.633 392.348 380.299 392.398 379.973 392.445C379.647 392.487 379.375 392.522 379.156 392.552C378.641 392.617 378.171 392.726 377.745 392.88C377.324 393.034 376.987 393.256 376.733 393.546C376.484 393.83 376.36 394.209 376.36 394.683C376.36 395.339 376.602 395.837 377.088 396.174C377.573 396.505 378.192 396.671 378.943 396.671ZM391.036 380.318V398.5H388.381V380.318H391.036ZM399.461 398.766C398.361 398.766 397.378 398.485 396.514 397.923C395.656 397.355 394.981 396.547 394.49 395.499C394.005 394.446 393.762 393.182 393.762 391.708C393.762 390.235 394.008 388.974 394.499 387.926C394.996 386.879 395.677 386.077 396.541 385.521C397.405 384.964 398.384 384.686 399.479 384.686C400.326 384.686 401.006 384.828 401.521 385.112C402.042 385.39 402.444 385.716 402.729 386.089C403.019 386.462 403.243 386.79 403.403 387.074H403.563V380.318H406.218V398.5H403.625V396.378H403.403C403.243 396.668 403.013 397 402.711 397.373C402.415 397.745 402.006 398.071 401.486 398.349C400.965 398.627 400.29 398.766 399.461 398.766ZM400.047 396.502C400.811 396.502 401.456 396.301 401.983 395.899C402.515 395.49 402.918 394.925 403.19 394.203C403.468 393.481 403.607 392.641 403.607 391.682C403.607 390.735 403.471 389.906 403.199 389.196C402.927 388.486 402.527 387.932 402.001 387.536C401.474 387.139 400.823 386.941 400.047 386.941C399.248 386.941 398.583 387.148 398.05 387.562C397.517 387.977 397.115 388.542 396.843 389.258C396.576 389.974 396.443 390.782 396.443 391.682C396.443 392.593 396.579 393.413 396.851 394.141C397.124 394.869 397.526 395.446 398.059 395.872C398.597 396.292 399.26 396.502 400.047 396.502ZM415.5 398.775C414.222 398.775 413.106 398.482 412.153 397.896C411.2 397.31 410.46 396.491 409.934 395.437C409.407 394.384 409.144 393.153 409.144 391.744C409.144 390.329 409.407 389.092 409.934 388.033C410.46 386.974 411.2 386.151 412.153 385.565C413.106 384.979 414.222 384.686 415.5 384.686C416.778 384.686 417.894 384.979 418.847 385.565C419.8 386.151 420.54 386.974 421.066 388.033C421.593 389.092 421.857 390.329 421.857 391.744C421.857 393.153 421.593 394.384 421.066 395.437C420.54 396.491 419.8 397.31 418.847 397.896C417.894 398.482 416.778 398.775 415.5 398.775ZM415.509 396.547C416.338 396.547 417.024 396.328 417.569 395.89C418.113 395.452 418.516 394.869 418.776 394.141C419.042 393.413 419.176 392.611 419.176 391.735C419.176 390.865 419.042 390.066 418.776 389.338C418.516 388.604 418.113 388.015 417.569 387.571C417.024 387.127 416.338 386.906 415.509 386.906C414.674 386.906 413.982 387.127 413.432 387.571C412.887 388.015 412.482 388.604 412.215 389.338C411.955 390.066 411.825 390.865 411.825 391.735C411.825 392.611 411.955 393.413 412.215 394.141C412.482 394.869 412.887 395.452 413.432 395.89C413.982 396.328 414.674 396.547 415.509 396.547ZM432.614 403.614C432.217 403.614 431.856 403.581 431.531 403.516C431.205 403.457 430.962 403.392 430.803 403.321L431.442 401.146C431.927 401.276 432.359 401.332 432.738 401.314C433.117 401.297 433.451 401.154 433.741 400.888C434.037 400.622 434.298 400.187 434.522 399.583L434.851 398.678L429.862 384.864H432.703L436.156 395.446H436.298L439.752 384.864H442.601L436.982 400.32C436.721 401.03 436.39 401.631 435.987 402.122C435.585 402.619 435.105 402.992 434.549 403.241C433.993 403.489 433.348 403.614 432.614 403.614ZM68.7528 428.802C67.8887 428.802 67.1075 428.642 66.4091 428.322C65.7107 427.997 65.1573 427.526 64.7489 426.911C64.3465 426.295 64.1452 425.541 64.1452 424.647C64.1452 423.878 64.2932 423.244 64.5891 422.747C64.8851 422.25 65.2846 421.856 65.7876 421.566C66.2907 421.276 66.853 421.057 67.4744 420.909C68.0959 420.761 68.7292 420.649 69.3743 420.572C70.1911 420.477 70.8539 420.4 71.3629 420.341C71.8719 420.276 72.2418 420.173 72.4727 420.031C72.7035 419.888 72.8189 419.658 72.8189 419.338V419.276C72.8189 418.501 72.5999 417.9 72.1619 417.474C71.7299 417.048 71.0848 416.835 70.2266 416.835C69.3329 416.835 68.6286 417.033 68.1136 417.429C67.6046 417.82 67.2525 418.255 67.0572 418.734L64.5625 418.166C64.8584 417.338 65.2905 416.669 65.8587 416.16C66.4328 415.645 67.0927 415.272 67.8384 415.041C68.5842 414.804 69.3684 414.686 70.1911 414.686C70.7356 414.686 71.3126 414.751 71.9222 414.881C72.5378 415.006 73.1119 415.237 73.6445 415.574C74.1831 415.911 74.6241 416.394 74.9673 417.021C75.3106 417.642 75.4822 418.45 75.4822 419.445V428.5H72.8899V426.636H72.7834C72.6117 426.979 72.3543 427.316 72.011 427.648C71.6677 427.979 71.2268 428.254 70.6882 428.473C70.1496 428.692 69.5045 428.802 68.7528 428.802ZM69.3299 426.671C70.0638 426.671 70.6912 426.526 71.212 426.236C71.7388 425.946 72.1383 425.567 72.4105 425.1C72.6887 424.626 72.8278 424.12 72.8278 423.582V421.824C72.7331 421.919 72.5496 422.007 72.2773 422.09C72.011 422.167 71.7062 422.235 71.3629 422.294C71.0196 422.348 70.6853 422.398 70.3597 422.445C70.0342 422.487 69.762 422.522 69.543 422.552C69.0281 422.617 68.5575 422.726 68.1314 422.88C67.7112 423.034 67.3738 423.256 67.1193 423.546C66.8707 423.83 66.7464 424.209 66.7464 424.683C66.7464 425.339 66.9891 425.837 67.4744 426.174C67.9598 426.505 68.5782 426.671 69.3299 426.671ZM81.4223 420.403V428.5H78.7678V410.318H81.3868V417.083H81.5555C81.8751 416.349 82.3634 415.766 83.0203 415.334C83.6773 414.902 84.5355 414.686 85.5949 414.686C86.53 414.686 87.3468 414.878 88.0452 415.263C88.7495 415.648 89.294 416.222 89.6787 416.985C90.0693 417.743 90.2646 418.69 90.2646 419.826V428.5H87.6102V420.146C87.6102 419.146 87.3527 418.37 86.8378 417.82C86.3229 417.264 85.6067 416.985 84.6894 416.985C84.062 416.985 83.4997 417.119 83.0026 417.385C82.5113 417.651 82.1237 418.042 81.8396 418.557C81.5614 419.066 81.4223 419.681 81.4223 420.403ZM99.3009 428.775C98.0225 428.775 96.9068 428.482 95.9539 427.896C95.001 427.31 94.2612 426.491 93.7345 425.437C93.2077 424.384 92.9443 423.153 92.9443 421.744C92.9443 420.329 93.2077 419.092 93.7345 418.033C94.2612 416.974 95.001 416.151 95.9539 415.565C96.9068 414.979 98.0225 414.686 99.3009 414.686C100.579 414.686 101.695 414.979 102.648 415.565C103.601 416.151 104.341 416.974 104.867 418.033C105.394 419.092 105.657 420.329 105.657 421.744C105.657 423.153 105.394 424.384 104.867 425.437C104.341 426.491 103.601 427.31 102.648 427.896C101.695 428.482 100.579 428.775 99.3009 428.775ZM99.3097 426.547C100.138 426.547 100.825 426.328 101.369 425.89C101.914 425.452 102.316 424.869 102.577 424.141C102.843 423.413 102.976 422.611 102.976 421.735C102.976 420.865 102.843 420.066 102.577 419.338C102.316 418.604 101.914 418.015 101.369 417.571C100.825 417.127 100.138 416.906 99.3097 416.906C98.4752 416.906 97.7828 417.127 97.2323 417.571C96.6878 418.015 96.2824 418.604 96.0161 419.338C95.7557 420.066 95.6254 420.865 95.6254 421.735C95.6254 422.611 95.7557 423.413 96.0161 424.141C96.2824 424.869 96.6878 425.452 97.2323 425.89C97.7828 426.328 98.4752 426.547 99.3097 426.547ZM108.37 428.5V414.864H110.936V417.03H111.078C111.327 416.296 111.765 415.719 112.392 415.299C113.025 414.873 113.741 414.659 114.54 414.659C114.706 414.659 114.902 414.665 115.126 414.677C115.357 414.689 115.538 414.704 115.668 414.722V417.261C115.561 417.231 115.372 417.199 115.1 417.163C114.828 417.122 114.555 417.101 114.283 417.101C113.656 417.101 113.096 417.234 112.605 417.5C112.12 417.761 111.735 418.125 111.451 418.592C111.167 419.054 111.025 419.581 111.025 420.173V428.5H108.37ZM117.715 428.5V414.864H120.281V417.03H120.423C120.671 416.296 121.109 415.719 121.737 415.299C122.37 414.873 123.086 414.659 123.885 414.659C124.051 414.659 124.246 414.665 124.471 414.677C124.702 414.689 124.882 414.704 125.013 414.722V417.261C124.906 417.231 124.717 417.199 124.445 417.163C124.172 417.122 123.9 417.101 123.628 417.101C123 417.101 122.441 417.234 121.95 417.5C121.465 417.761 121.08 418.125 120.796 418.592C120.512 419.054 120.37 419.581 120.37 420.173V428.5H117.715ZM130.906 428.802C130.042 428.802 129.261 428.642 128.562 428.322C127.864 427.997 127.311 427.526 126.902 426.911C126.5 426.295 126.299 425.541 126.299 424.647C126.299 423.878 126.447 423.244 126.742 422.747C127.038 422.25 127.438 421.856 127.941 421.566C128.444 421.276 129.006 421.057 129.628 420.909C130.249 420.761 130.882 420.649 131.528 420.572C132.344 420.477 133.007 420.4 133.516 420.341C134.025 420.276 134.395 420.173 134.626 420.031C134.857 419.888 134.972 419.658 134.972 419.338V419.276C134.972 418.501 134.753 417.9 134.315 417.474C133.883 417.048 133.238 416.835 132.38 416.835C131.486 416.835 130.782 417.033 130.267 417.429C129.758 417.82 129.406 418.255 129.21 418.734L126.716 418.166C127.012 417.338 127.444 416.669 128.012 416.16C128.586 415.645 129.246 415.272 129.992 415.041C130.737 414.804 131.522 414.686 132.344 414.686C132.889 414.686 133.466 414.751 134.076 414.881C134.691 415.006 135.265 415.237 135.798 415.574C136.336 415.911 136.777 416.394 137.121 417.021C137.464 417.642 137.636 418.45 137.636 419.445V428.5H135.043V426.636H134.937C134.765 426.979 134.508 427.316 134.164 427.648C133.821 427.979 133.38 428.254 132.842 428.473C132.303 428.692 131.658 428.802 130.906 428.802ZM131.483 426.671C132.217 426.671 132.844 426.526 133.365 426.236C133.892 425.946 134.292 425.567 134.564 425.1C134.842 424.626 134.981 424.12 134.981 423.582V421.824C134.886 421.919 134.703 422.007 134.431 422.09C134.164 422.167 133.86 422.235 133.516 422.294C133.173 422.348 132.839 422.398 132.513 422.445C132.188 422.487 131.915 422.522 131.696 422.552C131.181 422.617 130.711 422.726 130.285 422.88C129.864 423.034 129.527 423.256 129.273 423.546C129.024 423.83 128.9 424.209 128.9 424.683C128.9 425.339 129.142 425.837 129.628 426.174C130.113 426.505 130.732 426.671 131.483 426.671ZM153.031 428.775C151.711 428.775 150.575 428.476 149.622 427.879C148.675 427.275 147.947 426.443 147.438 425.384C146.929 424.324 146.675 423.111 146.675 421.744C146.675 420.359 146.935 419.137 147.456 418.077C147.977 417.012 148.711 416.181 149.658 415.583C150.605 414.985 151.72 414.686 153.005 414.686C154.04 414.686 154.964 414.878 155.775 415.263C156.585 415.642 157.239 416.175 157.737 416.861C158.24 417.548 158.539 418.35 158.633 419.267H156.05C155.908 418.628 155.582 418.077 155.073 417.616C154.57 417.154 153.895 416.923 153.049 416.923C152.309 416.923 151.661 417.119 151.105 417.509C150.554 417.894 150.125 418.444 149.818 419.161C149.51 419.871 149.356 420.711 149.356 421.682C149.356 422.676 149.507 423.534 149.809 424.256C150.111 424.978 150.537 425.538 151.087 425.934C151.643 426.331 152.297 426.529 153.049 426.529C153.552 426.529 154.008 426.437 154.416 426.254C154.831 426.065 155.177 425.795 155.455 425.446C155.739 425.097 155.937 424.677 156.05 424.185H158.633C158.539 425.067 158.252 425.854 157.772 426.547C157.293 427.239 156.651 427.784 155.846 428.18C155.047 428.577 154.109 428.775 153.031 428.775ZM165.19 428.802C164.326 428.802 163.545 428.642 162.847 428.322C162.148 427.997 161.595 427.526 161.186 426.911C160.784 426.295 160.583 425.541 160.583 424.647C160.583 423.878 160.731 423.244 161.027 422.747C161.323 422.25 161.722 421.856 162.225 421.566C162.728 421.276 163.29 421.057 163.912 420.909C164.533 420.761 165.167 420.649 165.812 420.572C166.629 420.477 167.291 420.4 167.8 420.341C168.309 420.276 168.679 420.173 168.91 420.031C169.141 419.888 169.256 419.658 169.256 419.338V419.276C169.256 418.501 169.037 417.9 168.599 417.474C168.167 417.048 167.522 416.835 166.664 416.835C165.77 416.835 165.066 417.033 164.551 417.429C164.042 417.82 163.69 418.255 163.495 418.734L161 418.166C161.296 417.338 161.728 416.669 162.296 416.16C162.87 415.645 163.53 415.272 164.276 415.041C165.022 414.804 165.806 414.686 166.629 414.686C167.173 414.686 167.75 414.751 168.36 414.881C168.975 415.006 169.549 415.237 170.082 415.574C170.621 415.911 171.062 416.394 171.405 417.021C171.748 417.642 171.92 418.45 171.92 419.445V428.5H169.327V426.636H169.221C169.049 426.979 168.792 427.316 168.449 427.648C168.105 427.979 167.664 428.254 167.126 428.473C166.587 428.692 165.942 428.802 165.19 428.802ZM165.767 426.671C166.501 426.671 167.129 426.526 167.65 426.236C168.176 425.946 168.576 425.567 168.848 425.1C169.126 424.626 169.265 424.12 169.265 423.582V421.824C169.171 421.919 168.987 422.007 168.715 422.09C168.449 422.167 168.144 422.235 167.8 422.294C167.457 422.348 167.123 422.398 166.797 422.445C166.472 422.487 166.199 422.522 165.98 422.552C165.466 422.617 164.995 422.726 164.569 422.88C164.149 423.034 163.811 423.256 163.557 423.546C163.308 423.83 163.184 424.209 163.184 424.683C163.184 425.339 163.427 425.837 163.912 426.174C164.397 426.505 165.016 426.671 165.767 426.671ZM180.31 428.766C179.209 428.766 178.227 428.485 177.363 427.923C176.504 427.355 175.83 426.547 175.339 425.499C174.853 424.446 174.611 423.182 174.611 421.708C174.611 420.235 174.856 418.974 175.347 417.926C175.845 416.879 176.525 416.077 177.389 415.521C178.253 414.964 179.233 414.686 180.328 414.686C181.174 414.686 181.855 414.828 182.37 415.112C182.891 415.39 183.293 415.716 183.577 416.089C183.867 416.462 184.092 416.79 184.252 417.074H184.412V410.318H187.066V428.5H184.474V426.378H184.252C184.092 426.668 183.861 427 183.559 427.373C183.263 427.745 182.855 428.071 182.334 428.349C181.813 428.627 181.139 428.766 180.31 428.766ZM180.896 426.502C181.66 426.502 182.305 426.301 182.831 425.899C183.364 425.49 183.767 424.925 184.039 424.203C184.317 423.481 184.456 422.641 184.456 421.682C184.456 420.735 184.32 419.906 184.048 419.196C183.775 418.486 183.376 417.932 182.849 417.536C182.322 417.139 181.671 416.941 180.896 416.941C180.097 416.941 179.431 417.148 178.899 417.562C178.366 417.977 177.963 418.542 177.691 419.258C177.425 419.974 177.292 420.782 177.292 421.682C177.292 422.593 177.428 423.413 177.7 424.141C177.972 424.869 178.375 425.446 178.907 425.872C179.446 426.292 180.109 426.502 180.896 426.502ZM194.573 428.802C193.709 428.802 192.928 428.642 192.229 428.322C191.531 427.997 190.978 427.526 190.569 426.911C190.167 426.295 189.966 425.541 189.966 424.647C189.966 423.878 190.114 423.244 190.409 422.747C190.705 422.25 191.105 421.856 191.608 421.566C192.111 421.276 192.673 421.057 193.295 420.909C193.916 420.761 194.549 420.649 195.195 420.572C196.011 420.477 196.674 420.4 197.183 420.341C197.692 420.276 198.062 420.173 198.293 420.031C198.524 419.888 198.639 419.658 198.639 419.338V419.276C198.639 418.501 198.42 417.9 197.982 417.474C197.55 417.048 196.905 416.835 196.047 416.835C195.153 416.835 194.449 417.033 193.934 417.429C193.425 417.82 193.073 418.255 192.877 418.734L190.383 418.166C190.679 417.338 191.111 416.669 191.679 416.16C192.253 415.645 192.913 415.272 193.659 415.041C194.404 414.804 195.189 414.686 196.011 414.686C196.556 414.686 197.133 414.751 197.743 414.881C198.358 415.006 198.932 415.237 199.465 415.574C200.003 415.911 200.444 416.394 200.788 417.021C201.131 417.642 201.303 418.45 201.303 419.445V428.5H198.71V426.636H198.604C198.432 426.979 198.175 427.316 197.831 427.648C197.488 427.979 197.047 428.254 196.509 428.473C195.97 428.692 195.325 428.802 194.573 428.802ZM195.15 426.671C195.884 426.671 196.511 426.526 197.032 426.236C197.559 425.946 197.959 425.567 198.231 425.1C198.509 424.626 198.648 424.12 198.648 423.582V421.824C198.553 421.919 198.37 422.007 198.098 422.09C197.831 422.167 197.527 422.235 197.183 422.294C196.84 422.348 196.506 422.398 196.18 422.445C195.855 422.487 195.582 422.522 195.363 422.552C194.848 422.617 194.378 422.726 193.952 422.88C193.531 423.034 193.194 423.256 192.94 423.546C192.691 423.83 192.567 424.209 192.567 424.683C192.567 425.339 192.809 425.837 193.295 426.174C193.78 426.505 194.399 426.671 195.15 426.671ZM210.954 428.5V414.864H213.502V417.083H213.671C213.955 416.331 214.42 415.746 215.065 415.325C215.71 414.899 216.482 414.686 217.382 414.686C218.293 414.686 219.057 414.899 219.672 415.325C220.294 415.751 220.753 416.337 221.048 417.083H221.191C221.516 416.355 222.034 415.775 222.744 415.343C223.454 414.905 224.301 414.686 225.283 414.686C226.52 414.686 227.529 415.074 228.311 415.849C229.098 416.624 229.491 417.793 229.491 419.356V428.5H226.837V419.604C226.837 418.681 226.585 418.012 226.082 417.598C225.579 417.184 224.978 416.977 224.28 416.977C223.416 416.977 222.744 417.243 222.265 417.776C221.785 418.302 221.546 418.98 221.546 419.809V428.5H218.9V419.436C218.9 418.696 218.669 418.101 218.208 417.651C217.746 417.201 217.145 416.977 216.405 416.977C215.902 416.977 215.438 417.11 215.012 417.376C214.591 417.636 214.251 418 213.991 418.468C213.736 418.936 213.609 419.477 213.609 420.093V428.5H210.954ZM238.676 428.775C237.333 428.775 236.176 428.488 235.205 427.914C234.24 427.334 233.495 426.52 232.968 425.473C232.447 424.419 232.187 423.185 232.187 421.771C232.187 420.374 232.447 419.143 232.968 418.077C233.495 417.012 234.228 416.181 235.169 415.583C236.116 414.985 237.223 414.686 238.49 414.686C239.259 414.686 240.005 414.813 240.727 415.068C241.449 415.322 242.097 415.722 242.671 416.266C243.245 416.811 243.698 417.518 244.03 418.388C244.361 419.252 244.527 420.303 244.527 421.54V422.481H233.687V420.492H241.926C241.926 419.794 241.783 419.175 241.499 418.637C241.215 418.092 240.816 417.663 240.301 417.349C239.792 417.036 239.194 416.879 238.508 416.879C237.762 416.879 237.111 417.062 236.554 417.429C236.004 417.79 235.578 418.264 235.276 418.85C234.98 419.43 234.832 420.06 234.832 420.741V422.294C234.832 423.206 234.992 423.981 235.312 424.62C235.637 425.26 236.09 425.748 236.67 426.085C237.25 426.417 237.928 426.582 238.703 426.582C239.206 426.582 239.665 426.511 240.079 426.369C240.493 426.221 240.851 426.002 241.153 425.712C241.455 425.422 241.686 425.064 241.846 424.638L244.358 425.091C244.157 425.831 243.796 426.479 243.275 427.035C242.76 427.586 242.112 428.015 241.331 428.322C240.555 428.624 239.671 428.775 238.676 428.775ZM257.44 418.193L255.034 418.619C254.934 418.311 254.774 418.018 254.555 417.74C254.342 417.462 254.052 417.234 253.685 417.056C253.318 416.879 252.859 416.79 252.309 416.79C251.557 416.79 250.93 416.959 250.427 417.296C249.924 417.628 249.672 418.057 249.672 418.583C249.672 419.039 249.841 419.406 250.178 419.684C250.516 419.962 251.06 420.19 251.812 420.368L253.978 420.865C255.233 421.155 256.168 421.602 256.783 422.206C257.399 422.809 257.707 423.594 257.707 424.558C257.707 425.375 257.47 426.103 256.996 426.742C256.529 427.375 255.875 427.873 255.034 428.234C254.2 428.595 253.232 428.775 252.131 428.775C250.604 428.775 249.359 428.45 248.394 427.799C247.429 427.142 246.837 426.21 246.618 425.002L249.184 424.612C249.344 425.28 249.672 425.786 250.169 426.13C250.667 426.467 251.315 426.636 252.114 426.636C252.984 426.636 253.679 426.455 254.2 426.094C254.721 425.727 254.981 425.28 254.981 424.754C254.981 424.327 254.821 423.969 254.502 423.679C254.188 423.389 253.706 423.17 253.055 423.022L250.746 422.516C249.474 422.226 248.533 421.765 247.923 421.131C247.32 420.498 247.018 419.696 247.018 418.725C247.018 417.921 247.243 417.216 247.692 416.613C248.142 416.009 248.764 415.538 249.557 415.201C250.35 414.858 251.258 414.686 252.282 414.686C253.756 414.686 254.916 415.006 255.762 415.645C256.609 416.278 257.168 417.127 257.44 418.193ZM262.124 428.669C261.639 428.669 261.222 428.497 260.872 428.154C260.523 427.805 260.349 427.384 260.349 426.893C260.349 426.408 260.523 425.993 260.872 425.65C261.222 425.301 261.639 425.126 262.124 425.126C262.61 425.126 263.027 425.301 263.376 425.65C263.725 425.993 263.9 426.408 263.9 426.893C263.9 427.219 263.817 427.518 263.651 427.79C263.491 428.056 263.278 428.269 263.012 428.429C262.746 428.589 262.45 428.669 262.124 428.669Z" fill="black"/>
<defs>
<linearGradient id="paint0_linear_169_619" x1="559.417" y1="0.499984" x2="14.417" y2="641.5" gradientUnits="userSpaceOnUse">
<stop stop-color="#8981C8"/>
<stop offset="0.536458" stop-color="#7DA6D7"/>
<stop offset="1" stop-color="#6EBEDC"/>
</linearGradient>
<linearGradient id="paint1_linear_169_619" x1="521.917" y1="0.500015" x2="51.917" y2="0.499991" gradientUnits="userSpaceOnUse">
<stop stop-color="#DD6896"/>
<stop offset="0.505208" stop-color="#DE8086"/>
<stop offset="1" stop-color="#E19876"/>
</linearGradient>
</defs>
</svg>
