<svg width="130" height="32" viewBox="0 0 130 32" fill="none" xmlns="http://www.w3.org/2000/svg">
<path d="M98.397 4.89762H101.986V25.4336H98.397V4.89762Z" fill="#1C1C1C"/>
<path d="M90.1944 13.6786C88.6589 13.6786 87.657 14.3365 87.657 16.1366V19.3076C87.657 21.2815 88.2248 22.5345 90.1443 22.5345C92.5536 22.5345 92.8875 20.1331 92.8875 17.9366C92.8825 15.6772 92.5979 13.6786 90.1944 13.6786ZM90.9624 25.5077C89.4485 25.5077 88.6304 25.1106 87.785 23.7635H87.7349V31.0251H84.1235V10.8488H87.1729L87.401 12.5372H87.451C88.3744 11.0538 89.4991 10.5322 91.0904 10.5322C95.0078 10.5322 96.549 13.9584 96.549 17.8807C96.549 21.9706 95.0357 25.5077 90.9624 25.5077Z" fill="#1C1C1C"/>
<path d="M124.718 25.768C123.027 30.5405 122.209 31.6267 119.081 31.6267C118.569 31.6267 118.03 31.5963 117.133 31.4847V28.139C117.367 28.1638 117.801 28.2259 118.569 28.2259C119.95 28.2259 120.289 27.8288 120.745 26.5383L121.335 24.9121L116.288 10.8489H120.205L123.177 20.7665H123.227L126.121 10.8489H129.989L124.718 25.768Z" fill="#1C1C1C"/>
<path d="M115.492 21.8214V16.3104C115.492 12.1959 114.084 10.5385 110.317 10.5385C108.034 10.5385 106.165 11.1097 104.14 12.2516L105.263 14.9945C106.699 14.1068 108.313 13.511 109.977 13.511C111.285 13.511 111.875 13.9393 111.875 15.2863V15.969C108.675 15.9443 103.828 16.4284 103.828 21.1691C103.828 23.9437 105.542 25.5388 107.979 25.5388C109.56 25.5388 111.007 24.9494 112.258 23.8448C112.27 23.9317 112.28 24.0059 112.292 24.0497C112.681 25.4335 114.812 25.5268 116.421 25.4335L116.549 22.3797C115.881 22.355 115.492 22.2554 115.492 21.8214ZM111.958 21.6843C111.085 22.3677 110.138 22.8271 109.036 22.8271C107.985 22.8271 107.345 22.0822 107.345 20.8843C107.345 18.2836 110.266 18.2532 111.958 18.2532V21.6843Z" fill="#1C1C1C"/>
<path d="M46.9057 13.7104C44.6522 13.7104 43.9564 15.2242 43.9564 18.0236C43.9564 20.878 44.6744 22.4548 46.9277 22.4548C49.1317 22.4548 49.8497 20.9091 49.8497 18.0236C49.8497 15.2242 49.1596 13.7104 46.9057 13.7104ZM46.9057 25.5078C42.4482 25.5078 40.2949 22.4795 40.2949 18.0236C40.2949 13.8525 42.215 10.5386 46.9057 10.5386C51.235 10.5386 53.4891 13.3995 53.4891 18.0236C53.4891 22.4548 51.3852 25.5078 46.9057 25.5078Z" fill="#1C1C1C"/>
<path d="M28.8652 6.13856V9.70688H33.6788V25.4336H37.474V9.70688H42.2875V6.13856H28.8652Z" fill="#1C1C1C"/>
<path d="M61.9306 22.1192C60.0827 22.1687 59.9111 21.9086 59.8939 20.686C59.8939 20.6238 59.8939 20.5552 59.8939 20.4874V14.0823H62.866V10.8554H59.8939V7.05745H56.3325V10.8554H54.2065V14.0823H56.3103V20.915C56.3103 24.3723 57.1563 25.4585 60.6398 25.4585C61.2798 25.4585 61.892 25.3716 62.866 25.2599V22.0507C62.5985 22.0754 62.3761 22.1072 61.9306 22.1192Z" fill="#1C1C1C"/>
<path d="M78.5078 4.89762H82.0971V25.4336H78.5078V4.89762Z" fill="#1C1C1C"/>
<path d="M75.9935 21.8214V16.3104C75.9935 12.1959 74.5854 10.5385 70.818 10.5385C68.5368 10.5385 66.6666 11.1097 64.6414 12.2516L65.7656 14.9945C67.2008 14.1068 68.815 13.511 70.479 13.511C71.787 13.511 72.3764 13.9393 72.3764 15.2863V15.969C69.1768 15.9443 64.3296 16.4284 64.3296 21.1691C64.3296 23.9437 66.0432 25.5388 68.481 25.5388C70.0614 25.5388 71.5081 24.9494 72.7603 23.8448C72.7711 23.9317 72.7826 24.0059 72.7933 24.0497C73.1829 25.4335 75.3141 25.5268 76.9231 25.4335L77.0504 22.3797C76.3832 22.355 75.9935 22.2554 75.9935 21.8214ZM72.4593 21.6843C71.5862 22.3677 70.64 22.8271 69.538 22.8271C68.486 22.8271 67.8467 22.0822 67.8467 20.8843C67.8467 18.2836 70.768 18.2532 72.4593 18.2532V21.6843Z" fill="#1C1C1C"/>
<path d="M7.39588 5.48057C7.89714 5.15835 7.89714 4.63042 7.39588 4.31381L0.907455 0.137049C0.406834 -0.185173 0 0.081323 0 0.720881V9.0744C0 9.71957 0.406834 9.98028 0.907455 9.65733L7.39588 5.48057Z" fill="#F2A717"/>
<path d="M7.39588 16.1742C7.89714 15.8512 7.89714 15.324 7.39588 15.0066L0.907455 10.8299C0.406834 10.5077 0 10.7748 0 11.4136V19.7672C0 20.4124 0.406834 20.6732 0.907455 20.3502L7.39588 16.1742Z" fill="#6F4DAB"/>
<path d="M7.39588 26.8668C7.89714 26.5446 7.89714 26.0166 7.39588 25.7L0.907455 21.5233C0.406834 21.201 0 21.4675 0 22.107V30.4598C0 31.1058 0.406834 31.3666 0.907455 31.0436L7.39588 26.8668Z" fill="#F032A2"/>
<path d="M7.39588 26.8668C7.89714 26.5446 7.89714 26.0166 7.39588 25.7L0.907455 21.5233C0.406834 21.201 0 21.4675 0 22.107V30.4598C0 31.1058 0.406834 31.3666 0.907455 31.0436L7.39588 26.8668Z" fill="#DA2D94"/>
<path d="M8.30322 14.4171C8.30322 15.063 8.70879 15.3238 9.21004 15.0009L15.6985 10.8242C16.1991 10.5018 16.1991 9.97386 15.6985 9.65725L9.21004 5.48049C8.70879 5.15826 8.30322 5.42476 8.30322 6.06432V14.4171Z" fill="#68BDDC"/>
<path d="M8.30386 25.1107C8.30386 25.7559 8.70942 26.0167 9.21067 25.6937L15.6991 21.517C16.1997 21.1947 16.1997 20.6668 15.6991 20.3502L9.21067 16.1741C8.70942 15.8511 8.30322 16.1176 8.30322 16.7572V25.1107H8.30386Z" fill="#A1D72E"/>
<path d="M16.606 19.7608C16.606 20.406 17.0115 20.6668 17.5128 20.3445L24.0012 16.1678C24.5019 15.8448 24.5019 15.3176 24.0012 15.001L17.5128 10.8243C17.0115 10.5019 16.606 10.7684 16.606 11.4073V19.7608Z" fill="#D22E40"/>
</svg>
